<?xml version="1.0" standalone="no"?>
<!DOCTYPE svg PUBLIC "-//W3C//DTD SVG 1.1//EN" "http://www.w3.org/Graphics/SVG/1.1/DTD/svg11.dtd" >
<svg xmlns="http://www.w3.org/2000/svg" xmlns:xlink="http://www.w3.org/1999/xlink" version="1.1">
<metadata>
Created by FontForge 20170731 at Fri Oct  9 09:52:41 2020
 By Aleksey,,,
Sean Kane 2015
</metadata>
<defs>
<font id="Sk-Modernist-Regular" horiz-adv-x="1228" >
  <font-face 
    font-family="Sk-Modernist"
    font-weight="400"
    font-stretch="normal"
    units-per-em="2048"
    panose-1="0 0 5 0 0 0 0 0 0 0"
    ascent="1638"
    descent="-410"
    x-height="1024"
    cap-height="1405"
    bbox="-1141 -401 2494 1864"
    underline-thickness="102"
    underline-position="-307"
    unicode-range="U+0020-FB02"
  />
<missing-glyph horiz-adv-x="487" 
 />
    <glyph glyph-name="fi" unicode="fi" horiz-adv-x="1060" 
d="M938 1024v-1024h-164v881h-385v-881h-164v881h-164v143h164v115q0 129 77.5 207.5t205.5 78.5q44 0 82 -20v-129h-70q-59 0 -95 -38t-36 -99v-115h549zM774 1405h164v-225h-164v225z" />
    <glyph glyph-name="fl" unicode="fl" horiz-adv-x="1060" 
d="M225 0v881h-164v143h164v115q0 129 77.5 207.5t205.5 78.5q44 0 82 -20v-129h-70q-59 0 -95 -38t-36 -99v-115h201v-143h-201v-881h-164zM774 -4v1405h164v-1405h-164z" />
    <glyph glyph-name="f_f.liga" unicode="ff" horiz-adv-x="1208" 
d="M1049 1276q-70 0 -100.5 -31.5t-30.5 -105.5v-115h229v-143h-229v-881h-164v881h-365v-881h-164v881h-164v143h164v115q0 129 77.5 207.5t205.5 78.5q44 0 82 -20v-129h-70q-59 0 -95 -38t-36 -99v-115h365v115q0 129 77.5 207.5t204.5 78.5q66 0 111 -20v-129h-98z" />
    <glyph glyph-name="f_f_i.liga" unicode="ffi" horiz-adv-x="1589" 
d="M1466 1024v-1024h-163v881h-385v-881h-164v881h-365v-881h-164v881h-164v143h164v115q0 129 77.5 207.5t205.5 78.5q44 0 82 -20v-129h-70q-59 0 -95 -38t-36 -99v-115h365v115q0 129 77.5 207.5t204.5 78.5q44 0 82 -20v-129h-69q-59 0 -95 -38t-36 -99v-115h548z
M1303 1405h163v-225h-163v225z" />
    <glyph glyph-name="f_f_j.liga" unicode="ffj" horiz-adv-x="1589" 
d="M1466 1024v-1137q0 -130 -78.5 -209t-207.5 -79q-53 0 -101 20v127h92q59 0 95.5 39t36.5 102v994h-385v-881h-164v881h-365v-881h-164v881h-164v143h164v115q0 129 77.5 207.5t205.5 78.5q44 0 82 -20v-129h-70q-59 0 -95 -38t-36 -99v-115h365v115q0 129 77.5 207.5
t204.5 78.5q44 0 82 -20v-129h-69q-59 0 -95 -38t-36 -99v-115h548zM1303 1405h163v-227h-163v227z" />
    <glyph glyph-name="f_f_l.liga" unicode="ffl" horiz-adv-x="1589" 
d="M754 1139q0 129 77.5 207.5t204.5 78.5q44 0 82 -20v-129h-69q-59 0 -95 -38t-36 -99v-115h200v-143h-200v-881h-164v881h-365v-881h-164v881h-164v143h164v115q0 129 77.5 207.5t205.5 78.5q44 0 82 -20v-129h-70q-59 0 -95 -38t-36 -99v-115h365v115zM1303 1401h163
v-1405h-163v1405z" />
    <glyph glyph-name="f_j.liga" unicode="fj" horiz-adv-x="1060" 
d="M938 1024v-1137q0 -130 -79 -209t-208 -79q-52 0 -100 20v127h92q59 0 95 39t36 102v994h-385v-881h-164v881h-164v143h164v115q0 129 77.5 207.5t205.5 78.5q44 0 82 -20v-129h-70q-59 0 -95 -38t-36 -99v-115h549zM774 1405h164v-227h-164v227z" />
    <glyph glyph-name="f_t.liga" unicode="ft" horiz-adv-x="1353" 
d="M1114 123h178v-123q-85 -20 -168 -20q-137 0 -221 77.5t-84 204.5v619h-229h-201v-881h-164v881h-164v143h164v115q0 129 77.5 207.5t205.5 78.5q44 0 82 -20v-129h-70q-59 0 -95 -38t-36 -99v-115h266h164v381h164v-381h299v-143h-299v-619q0 -63 36 -101t95 -38z" />
    <glyph glyph-name="r_f.liga" unicode="rf" horiz-adv-x="1277" 
d="M1118 1276q-70 0 -100.5 -31.5t-30.5 -105.5v-115h230v-143h-230v-881h-164v881h-229q-138 0 -222.5 -83.5t-84.5 -219.5v-578h-164v1024h164v-141q47 63 128.5 102t164.5 39h243v115q0 129 77.5 207.5t205.5 78.5q66 0 111 -20v-129h-99z" />
    <glyph glyph-name="r_t.liga" unicode="rt" horiz-adv-x="1337" 
d="M1098 123h178v-123q-85 -20 -168 -20q-137 0 -221 77.5t-84 204.5v619h-164h-45q-138 0 -222.5 -83.5t-84.5 -219.5v-578h-164v1024h164v-141q47 63 128.5 102t164.5 39h79h144v381h164v-381h299v-143h-299v-619q0 -63 36 -101t95 -38z" />
    <glyph glyph-name="t_f.liga" unicode="tf" horiz-adv-x="1304" 
d="M1145 1276q-70 0 -100.5 -31.5t-30.5 -105.5v-115h229v-143h-229v-881h-164v881h-260h-201v-619q0 -67 34 -103t97 -36h80v-123q-38 -20 -98 -20q-127 0 -202 69.5t-75 194.5v637h-164v143h164v381h164v-381h297h164v115q0 129 77.5 207.5t205.5 78.5q65 0 110 -20v-129
h-98z" />
    <glyph glyph-name="t_t.liga" unicode="tt" horiz-adv-x="1384" 
d="M1145 123h178v-123q-85 -20 -168 -20q-137 0 -221 77.5t-84 204.5v619h-260h-201v-619q0 -67 34 -103t97 -36h80v-123q-38 -20 -98 -20q-127 0 -202 69.5t-75 194.5v637h-164v143h164v381h164v-381h297h164v381h164v-381h299v-143h-299v-619q0 -63 36 -101t95 -38z" />
    <glyph glyph-name=".notdef" horiz-adv-x="487" 
 />
    <glyph glyph-name=".null" horiz-adv-x="0" 
 />
    <glyph glyph-name="nonmarkingreturn" horiz-adv-x="682" 
 />
    <glyph glyph-name="space" unicode=" " horiz-adv-x="487" 
 />
    <glyph glyph-name="exclam" unicode="!" horiz-adv-x="471" 
d="M164 451l-31 954h205l-31 -954h-143zM123 0v225h225v-225h-225z" />
    <glyph glyph-name="quotedbl" unicode="&#x22;" horiz-adv-x="610" 
d="M80 954l-31 451h205l-31 -451h-143zM387 954l-31 451h205l-31 -451h-143z" />
    <glyph glyph-name="numbersign" unicode="#" horiz-adv-x="1556" 
d="M272 0l97 408h-308v143h340l80 332h-309v143h342l90 379h170l-90 -379h342l90 379h170l-90 -379h299v-143h-334l-78 -332h301v-143h-335l-97 -408h-168l97 408h-344l-97 -408h-168zM571 551h342l80 332h-344z" />
    <glyph glyph-name="dollar" unicode="$" horiz-adv-x="1175" 
d="M543 -223v203q-211 12 -340 132t-129 304h153q0 -120 87.5 -200.5t228.5 -92.5v530q-192 31 -310 136.5t-118 246.5q0 166 118 273t310 118v201h102v-201q188 -11 302 -121t114 -282h-154q0 109 -71.5 180t-190.5 80v-502q206 -35 331.5 -144.5t125.5 -254.5
q0 -169 -126 -280t-331 -123v-203h-102zM543 799v485q-119 -9 -191.5 -77t-72.5 -171q0 -86 72.5 -150.5t191.5 -86.5zM645 123q132 10 212.5 82t80.5 178q0 89 -80.5 158t-212.5 94v-512z" />
    <glyph glyph-name="percent" unicode="%" horiz-adv-x="1658" 
d="M317 -20l861 1445h143l-860 -1445h-144zM451 750q135 0 231 96t96 231t-96 231.5t-231 96.5t-231.5 -96.5t-96.5 -231.5t96.5 -231t231.5 -96zM451 1262q76 0 130 -54t54 -131t-53.5 -130.5t-130.5 -53.5t-131 54t-54 130q0 77 54 131t131 54zM1208 0q135 0 231.5 96.5
t96.5 231.5t-96.5 231t-231.5 96t-231 -96t-96 -231t96 -231.5t231 -96.5zM1208 512q77 0 131 -54t54 -130t-54.5 -130.5t-130.5 -54.5t-130 54t-54 131q0 76 54 130t130 54z" />
    <glyph glyph-name="ampersand" unicode="&#x26;" horiz-adv-x="1435" 
d="M541 -20q-210 0 -338.5 106.5t-128.5 280.5q0 104 83 211t218 178l-74 71q-57 57 -91 132t-34 143q0 146 106.5 234.5t280.5 88.5q178 0 286.5 -91t108.5 -240q0 -85 -68.5 -176.5t-180.5 -155.5q-65 -34 -68 -35l352 -344q28 54 45 131t17 148h164q0 -100 -30 -209
t-79 -185l276 -268h-235l-147 143q-82 -74 -209 -118.5t-254 -44.5zM532 831q29 14 105 56q70 40 114 97t44 110q0 85 -64 136.5t-168 51.5q-100 0 -161.5 -49.5t-61.5 -130.5q0 -37 21 -80.5t55 -77.5zM541 123q98 0 195 35t159 92l-410 399q-112 -60 -179.5 -137
t-67.5 -145q0 -109 83.5 -176.5t219.5 -67.5z" />
    <glyph glyph-name="quotesingle" unicode="'" horiz-adv-x="303" 
d="M80 954l-31 451h205l-31 -451h-143z" />
    <glyph glyph-name="parenleft" unicode="(" horiz-adv-x="571" 
d="M399 -270q-195 327 -260 521t-65 449q0 260 65 454.5t260 518.5l123 -71q-170 -287 -227 -468t-57 -434q0 -251 56.5 -430.5t227.5 -468.5z" />
    <glyph glyph-name="parenright" unicode=")" horiz-adv-x="571" 
d="M172 -270l-123 71q171 289 228 469t57 430q0 253 -57 433.5t-228 468.5l123 71q195 -325 260.5 -519.5t65.5 -453.5q0 -255 -65.5 -448.5t-260.5 -521.5z" />
    <glyph glyph-name="asterisk" unicode="*" horiz-adv-x="1044" 
d="M319 528l-133 99l215 282l-340 103l52 155l336 -118l-9 356h164l-8 -356l336 118l51 -155l-342 -103l215 -282l-131 -99l-203 293z" />
    <glyph glyph-name="plus" unicode="+" 
d="M532 0v440h-411v144h411v440h164v-440h412v-144h-412v-440h-164z" />
    <glyph glyph-name="comma" unicode="," horiz-adv-x="471" 
d="M123 -225v123q46 0 74 28t28 74h-102v225h225v-225q0 -101 -62 -163t-163 -62z" />
    <glyph glyph-name="hyphen" unicode="-" horiz-adv-x="954" 
d="M123 420v143h708v-143h-708z" />
    <glyph glyph-name="period" unicode="." horiz-adv-x="471" 
d="M123 0v225h225v-225h-225z" />
    <glyph glyph-name="slash" unicode="/" horiz-adv-x="864" 
d="M49 -20l623 1445h143l-622 -1445h-144z" />
    <glyph glyph-name="zero" unicode="0" 
d="M614 -20q-246 0 -379 187.5t-133 534.5t133 535t379 188t379 -188t133 -535t-133 -534.5t-379 -187.5zM614 123q167 0 258 150.5t91 428.5t-91 429t-258 151t-257.5 -151t-90.5 -429t90.5 -428.5t257.5 -150.5z" />
    <glyph glyph-name="one" unicode="1" horiz-adv-x="841" 
d="M473 0v1128q-60 -47 -156 -75.5t-194 -28.5v143q131 0 229 65.5t129 172.5h156v-1405h-164z" />
    <glyph glyph-name="two" unicode="2" 
d="M121 0v164q361 234 641 475q77 68 124.5 160.5t47.5 175.5q0 138 -87.5 222.5t-232.5 84.5q-154 0 -247 -108t-93 -287h-153q0 243 135 390.5t358 147.5q218 0 351 -123.5t133 -326.5q0 -110 -64.5 -234t-169.5 -217q-96 -83 -238 -188t-276 -193h758v-143h-987z" />
    <glyph glyph-name="three" unicode="3" 
d="M614 -20q-223 0 -358 119.5t-135 316.5h153q0 -132 93 -212.5t247 -80.5q159 0 256 79.5t97 209.5q0 121 -92.5 195.5t-243.5 74.5h-123v143h123q132 0 213.5 62t81.5 162q0 104 -86 168.5t-226 64.5q-144 0 -231.5 -90t-87.5 -238h-154q0 212 129.5 341.5t343.5 129.5
q213 0 343 -98t130 -258q0 -101 -57.5 -187t-152.5 -126q114 -41 182.5 -140t68.5 -219q0 -188 -141 -302.5t-373 -114.5z" />
    <glyph glyph-name="four" unicode="4" 
d="M729 0v412h-629v143l578 850h215v-850h235v-143h-235v-412h-164zM276 555h453v672z" />
    <glyph glyph-name="five" unicode="5" 
d="M614 -20q-232 0 -373 138t-141 365h154q0 -163 98.5 -261.5t261.5 -98.5q158 0 254.5 100t96.5 264t-96.5 264.5t-254.5 100.5q-101 0 -194 -45t-144 -119l-170 21l87 696h874v-143h-727l-49 -388q63 54 158 87.5t186 33.5q223 0 358 -139.5t135 -368.5t-141 -368
t-373 -139z" />
    <glyph glyph-name="six" unicode="6" 
d="M100 702q0 215 63.5 379t180.5 254t270 90q185 0 319 -93t169 -247h-158q-28 89 -118 143t-212 54q-158 0 -254 -146t-96 -386q46 112 147 180.5t220 68.5q224 0 360.5 -140.5t136.5 -369.5t-141 -369t-373 -140q-153 0 -270 89.5t-180.5 253.5t-63.5 379zM299 489
q0 -90 28 -161.5t75 -116t104.5 -67.5t120.5 -23q64 0 124 23.5t108 68t77 116.5t29 160t-28.5 160t-76.5 116.5t-107.5 68.5t-123.5 24q-63 0 -121 -23.5t-105 -68t-75.5 -116.5t-28.5 -161z" />
    <glyph glyph-name="seven" unicode="7" 
d="M436 0q0 291 118.5 597.5t369.5 664.5h-824v143h1028v-121q-271 -367 -399.5 -679t-128.5 -605h-164z" />
    <glyph glyph-name="eight" unicode="8" 
d="M614 -20q-232 0 -373 112t-141 295q0 118 73 219.5t192 147.5q-91 41 -147 128t-56 187q0 160 124 258t328 98t328.5 -98t124.5 -258q0 -100 -56 -187t-147 -128q118 -46 191 -147t73 -220q0 -183 -141 -295t-373 -112zM614 825q130 0 209.5 63.5t79.5 166.5t-79 165
t-210 62q-130 0 -209 -62t-79 -165t79 -166.5t209 -63.5zM614 123q158 0 254.5 76t96.5 202t-96.5 203.5t-254.5 77.5t-254 -77.5t-96 -203.5t96 -202t254 -76z" />
    <glyph glyph-name="nine" unicode="9" 
d="M1128 702q0 -215 -63.5 -379t-180.5 -253.5t-270 -89.5q-185 0 -318.5 92.5t-168.5 246.5h158q28 -89 117.5 -142.5t211.5 -53.5q158 0 254.5 146.5t96.5 385.5q-46 -112 -147 -180.5t-220 -68.5q-224 0 -361 140t-137 369t141.5 369.5t372.5 140.5q153 0 270 -90
t180.5 -254t63.5 -379zM930 915q0 90 -28 162t-75 116t-104.5 67.5t-120.5 23.5q-64 0 -124 -24t-108 -68.5t-77 -116.5t-29 -160t28.5 -160t76.5 -116.5t107.5 -68t123.5 -23.5q63 0 121 23.5t105 67.5t75.5 116t28.5 161z" />
    <glyph glyph-name="colon" unicode=":" horiz-adv-x="471" 
d="M123 799v225h225v-225h-225zM123 0v225h225v-225h-225z" />
    <glyph glyph-name="semicolon" unicode=";" horiz-adv-x="471" 
d="M123 799v225h225v-225h-225zM123 -225v123q46 0 74 28t28 74h-102v225h225v-225q0 -101 -62 -163t-163 -62z" />
    <glyph glyph-name="less" unicode="&#x3c;" 
d="M1108 63l-987 388v157l987 385v-172l-782 -291l782 -294v-173z" />
    <glyph glyph-name="equal" unicode="=" 
d="M121 670v143h987v-143h-987zM121 211v143h987v-143h-987z" />
    <glyph glyph-name="greater" unicode="&#x3e;" 
d="M121 63v173l782 294l-782 291v172l987 -385v-157z" />
    <glyph glyph-name="question" unicode="?" horiz-adv-x="1062" 
d="M471 451q0 61 19.5 116.5t50.5 97t69 80t76 72.5t69 67.5t50.5 72t19.5 79.5q0 110 -71.5 178t-188.5 68q-148 0 -240.5 -92.5t-97.5 -243.5h-153q5 215 139.5 347t351.5 132q190 0 307 -107t117 -282q0 -59 -20 -113t-52.5 -94.5t-71.5 -78.5t-78 -73t-71.5 -69
t-52.5 -74t-20 -83h-152zM434 0v225h225v-225h-225z" />
    <glyph glyph-name="at" unicode="@" horiz-adv-x="1886" 
d="M965 -125q-251 0 -442 93t-295.5 263.5t-104.5 393.5q0 182 64.5 335t180 259.5t282 165.5t364.5 59q338 0 543.5 -173t205.5 -456q0 -249 -123.5 -401t-324.5 -152q-75 0 -135.5 35t-85.5 92q-47 -61 -114.5 -99t-129.5 -38q-123 0 -197.5 87t-74.5 232q0 110 36 210
t92.5 168.5t127 108.5t139.5 40q70 0 131 -48t90 -126l31 100h170l-152 -512q-6 -18 -6 -35q0 -34 20.5 -52.5t57.5 -18.5q128 0 206 112.5t78 296.5q0 218 -160.5 351.5t-424.5 133.5q-327 0 -527 -185.5t-200 -489.5q0 -272 186 -438.5t492 -166.5q147 0 302 53t261 140
l96 -117q-120 -100 -301 -160.5t-358 -60.5zM866 395q118 0 191 105.5t73 277.5q0 79 -36 127.5t-95 48.5q-118 0 -191 -105.5t-73 -277.5q0 -79 36 -127.5t95 -48.5z" />
    <glyph glyph-name="A" unicode="A" horiz-adv-x="1441" 
d="M1196 0l-186 469h-578l-186 -469h-197l578 1405h188l578 -1405h-197zM498 633h446l-223 561z" />
    <glyph glyph-name="B" unicode="B" horiz-adv-x="1351" 
d="M143 0v1405h609q188 0 301.5 -96t113.5 -254q0 -77 -42 -154.5t-109 -124.5q118 -43 190 -147t72 -230q0 -180 -119.5 -289.5t-314.5 -109.5h-701zM328 836h424q104 0 167.5 55.5t63.5 146.5t-63.5 147t-167.5 56h-424v-405zM328 164h516q113 0 181.5 69t68.5 183
q0 116 -68 186t-180 70h-518v-508z" />
    <glyph glyph-name="C" unicode="C" horiz-adv-x="1501" 
d="M760 -20q-309 0 -497.5 198.5t-188.5 523.5q0 326 188.5 524.5t497.5 198.5q160 0 297 -66.5t232 -189t132 -282.5h-180q-47 169 -179.5 272t-301.5 103q-226 0 -364 -154t-138 -406t138 -405.5t364 -153.5q180 0 314.5 112.5t174.5 295.5h178q-51 -257 -234.5 -414
t-432.5 -157z" />
    <glyph glyph-name="D" unicode="D" horiz-adv-x="1388" 
d="M143 0v1405h502q301 0 485.5 -192.5t184.5 -507.5q0 -316 -184.5 -510.5t-485.5 -194.5h-502zM328 164h317q218 0 351.5 149t133.5 392q0 241 -133.5 388.5t-351.5 147.5h-317v-1077z" />
    <glyph glyph-name="E" unicode="E" horiz-adv-x="1112" 
d="M143 0v1405h908v-164h-723v-405h649v-164h-649v-508h723v-164h-908z" />
    <glyph glyph-name="F" unicode="F" horiz-adv-x="1112" 
d="M143 0v1405h908v-164h-723v-405h628v-164h-628v-672h-185z" />
    <glyph glyph-name="G" unicode="G" horiz-adv-x="1519" 
d="M760 -20q-204 0 -360 90.5t-241 255t-85 379.5q0 324 188.5 522t497.5 198q192 0 359 -106.5t249 -280.5l-170 -41q-62 119 -182.5 192t-255.5 73q-226 0 -364 -153.5t-138 -403.5q0 -252 138 -407t364 -155q193 0 328.5 126.5t166.5 334.5h-495v164h686v-63
q0 -215 -85 -379.5t-241 -255t-360 -90.5z" />
    <glyph glyph-name="H" unicode="H" horiz-adv-x="1392" 
d="M143 0v1405h185v-569h737v569h184v-1405h-184v672h-737v-672h-185z" />
    <glyph glyph-name="I" unicode="I" horiz-adv-x="471" 
d="M143 0v1405h185v-1405h-185z" />
    <glyph glyph-name="J" unicode="J" horiz-adv-x="1116" 
d="M524 -20q-177 0 -307.5 120t-167.5 316h178q26 -123 108 -198t189 -75q128 0 206.5 108.5t78.5 285.5v868h184v-868q0 -250 -129 -403.5t-340 -153.5z" />
    <glyph glyph-name="K" unicode="K" horiz-adv-x="1323" 
d="M143 0v1405h185v-752l688 752h248l-562 -606l572 -799h-213l-479 670l-254 -275v-395h-185z" />
    <glyph glyph-name="L" unicode="L" horiz-adv-x="1112" 
d="M143 0v1405h185v-1241h723v-164h-908z" />
    <glyph glyph-name="M" unicode="M" horiz-adv-x="1781" 
d="M143 0v1405h248l500 -1172l500 1172h247v-1405h-184v1180l-493 -1180h-140l-493 1180v-1180h-185z" />
    <glyph glyph-name="N" unicode="N" horiz-adv-x="1462" 
d="M143 0v1405h203l789 -1149v1149h184v-1405h-205l-786 1147v-1147h-185z" />
    <glyph glyph-name="O" unicode="O" horiz-adv-x="1519" 
d="M760 -20q-204 0 -360 90.5t-241 255t-85 379.5q0 324 188.5 522t497.5 198t497.5 -198t188.5 -522q0 -215 -85 -379.5t-241 -255t-360 -90.5zM760 143q226 0 364 155t138 407q0 250 -138 403.5t-364 153.5t-364 -153.5t-138 -403.5q0 -252 138 -407t364 -155z" />
    <glyph glyph-name="P" unicode="P" horiz-adv-x="1236" 
d="M143 0v1405h580q198 0 319 -109t121 -288q0 -182 -121 -293t-319 -111h-395v-604h-185zM328 768h395q115 0 185.5 66.5t70.5 173.5q0 104 -70.5 168.5t-185.5 64.5h-395v-473z" />
    <glyph glyph-name="Q" unicode="Q" horiz-adv-x="1546" 
d="M760 -20q-204 0 -360 90.5t-241 255t-85 379.5q0 324 188.5 522t497.5 198t497.5 -198t188.5 -522q0 -138 -55 -282t-144 -239q56 -37 156 -37h70v-147q-42 -20 -101 -20q-66 0 -136.5 26.5t-121.5 69.5q-71 -43 -168.5 -69.5t-185.5 -26.5zM760 143q226 0 364 155
t138 407q0 250 -138 403.5t-364 153.5t-364 -153.5t-138 -403.5q0 -252 138 -407t364 -155z" />
    <glyph glyph-name="R" unicode="R" horiz-adv-x="1327" 
d="M143 0v1405h609q186 0 298.5 -101t112.5 -266q0 -145 -90 -244t-239 -118l419 -676h-217l-418 672h-290v-672h-185zM328 836h424q103 0 165 55.5t62 146.5t-62.5 147t-164.5 56h-424v-405z" />
    <glyph glyph-name="S" unicode="S" horiz-adv-x="1341" 
d="M686 -20q-276 0 -444 138t-168 365h174q0 -153 120.5 -246.5t317.5 -93.5q179 0 288 70.5t109 185.5q0 84 -95 141.5t-320 110.5q-269 63 -383.5 151t-114.5 230q0 177 142 285t374 108q198 0 346.5 -111t192.5 -292l-168 -41q-28 126 -130.5 203.5t-240.5 77.5
q-149 0 -240.5 -63.5t-91.5 -166.5q0 -71 81 -119.5t270 -91.5q304 -72 433.5 -169t129.5 -253q0 -189 -160.5 -304t-421.5 -115z" />
    <glyph glyph-name="T" unicode="T" horiz-adv-x="1175" 
d="M496 0v1241h-435v164h1053v-164h-434v-1241h-184z" />
    <glyph glyph-name="U" unicode="U" horiz-adv-x="1396" 
d="M700 -20q-242 0 -399.5 153.5t-157.5 392.5v879h185v-879q0 -170 104.5 -276.5t267.5 -106.5t266 108.5t103 274.5v879h184v-879q0 -237 -156.5 -391.5t-396.5 -154.5z" />
    <glyph glyph-name="V" unicode="V" horiz-adv-x="1441" 
d="M627 0l-578 1405h197l475 -1194l475 1194h197l-578 -1405h-188z" />
    <glyph glyph-name="W" unicode="W" horiz-adv-x="1806" 
d="M444 0l-395 1405h191l309 -1186l264 1186h178l266 -1186l310 1186h190l-395 -1405h-217l-242 1085l-241 -1085h-218z" />
    <glyph glyph-name="X" unicode="X" horiz-adv-x="1425" 
d="M49 0l555 735l-508 670h230l389 -524l385 524h229l-508 -670l555 -735h-227l-436 590l-437 -590h-227z" />
    <glyph glyph-name="Y" unicode="Y" horiz-adv-x="1193" 
d="M506 0v481l-457 924h203l346 -715l344 715h203l-455 -924v-481h-184z" />
    <glyph glyph-name="Z" unicode="Z" horiz-adv-x="1175" 
d="M61 0v143l809 1098h-809v164h1053v-145l-807 -1096h807v-164h-1053z" />
    <glyph glyph-name="bracketleft" unicode="[" horiz-adv-x="692" 
d="M123 -195v1786h446v-143h-282v-1499h282v-144h-446z" />
    <glyph glyph-name="backslash" unicode="\" horiz-adv-x="864" 
d="M815 -20h-143l-623 1445h144z" />
    <glyph glyph-name="bracketright" unicode="]" horiz-adv-x="618" 
d="M496 -195h-447v144h283v1499h-283v143h447v-1786z" />
    <glyph glyph-name="asciicircum" unicode="^" 
d="M100 571l439 834h147l442 -834h-184l-330 641l-329 -641h-185z" />
    <glyph glyph-name="underscore" unicode="_" horiz-adv-x="1175" 
d="M61 -143v143h1053v-143h-1053z" />
    <glyph glyph-name="grave" unicode="`" 
d="M528 1133l-163 272h204l117 -272h-158z" />
    <glyph glyph-name="a" unicode="a" horiz-adv-x="1224" 
d="M573 -20q-224 0 -361.5 146.5t-137.5 385.5t137.5 385.5t361.5 146.5q104 0 204.5 -53t160.5 -139v172h164v-1024h-164v172q-60 -86 -160.5 -139t-204.5 -53zM590 123q157 0 252.5 107t95.5 282t-95.5 282t-252.5 107q-158 0 -255 -107t-97 -282t97 -282t255 -107z" />
    <glyph glyph-name="b" unicode="b" horiz-adv-x="1241" 
d="M659 -20q-107 0 -209.5 53t-162.5 141v-174h-164v1405h164v-555q60 88 162.5 141t209.5 53q229 0 368.5 -146.5t139.5 -385.5t-139.5 -385.5t-368.5 -146.5zM643 123q163 0 262 107t99 282t-99 282t-262 107q-160 0 -258 -107t-98 -282t98 -282t258 -107z" />
    <glyph glyph-name="c" unicode="c" horiz-adv-x="1163" 
d="M588 -20q-232 0 -373 146.5t-141 385.5t141 385.5t373 146.5q196 0 333 -117t166 -309h-155q-23 128 -117.5 205.5t-226.5 77.5q-158 0 -254 -107t-96 -282t96 -282t254 -107q133 0 228 80.5t118 212.5h156q-29 -196 -167 -316t-335 -120z" />
    <glyph glyph-name="d" unicode="d" horiz-adv-x="1241" 
d="M582 -20q-229 0 -368.5 146.5t-139.5 385.5t139.5 385.5t368.5 146.5q107 0 209.5 -53t162.5 -141v555h164v-1405h-164v174q-60 -88 -162.5 -141t-209.5 -53zM598 123q160 0 258 107t98 282t-98 282t-258 107q-163 0 -261.5 -107t-98.5 -282t98.5 -282t261.5 -107z" />
    <glyph glyph-name="e" unicode="e" horiz-adv-x="1175" 
d="M588 -20q-232 0 -373 146.5t-141 385.5t141 385.5t373 146.5t373 -150.5t141 -397.5l-17 -17h-845q6 -160 101.5 -258t246.5 -98q114 0 203.5 62t123.5 163h164q-50 -166 -184.5 -267t-306.5 -101zM248 623h680q-29 133 -117.5 205.5t-222.5 72.5t-222.5 -72.5
t-117.5 -205.5z" />
    <glyph glyph-name="f" unicode="f" horiz-adv-x="679" 
d="M225 0v881h-164v143h164v115q0 129 77.5 207.5t205.5 78.5q65 0 110 -20v-129h-98q-70 0 -100.5 -31.5t-30.5 -105.5v-115h229v-143h-229v-881h-164z" />
    <glyph glyph-name="g" unicode="g" horiz-adv-x="1204" 
d="M578 -401q-194 0 -321.5 99t-168.5 282h168q32 -114 116 -176t206 -62q163 0 251.5 96t88.5 273v71q-56 -82 -153.5 -132t-201.5 -50q-220 0 -354.5 143.5t-134.5 378.5t134.5 378.5t354.5 143.5q103 0 200.5 -50.5t154.5 -133.5v164h163v-913q0 -246 -130.5 -379
t-372.5 -133zM580 143q152 0 245 104.5t93 274.5t-93 274.5t-245 104.5q-154 0 -248 -104.5t-94 -274.5t94 -274.5t248 -104.5z" />
    <glyph glyph-name="h" unicode="h" horiz-adv-x="1155" 
d="M123 0v1405h164v-512q54 68 142 109.5t177 41.5q192 0 309 -112.5t117 -296.5v-635h-164v606q0 132 -80 213.5t-210 81.5t-210.5 -81.5t-80.5 -213.5v-606h-164z" />
    <glyph glyph-name="i" unicode="i" horiz-adv-x="409" 
d="M123 1180v225h164v-225h-164zM123 0v1024h164v-1024h-164z" />
    <glyph glyph-name="j" unicode="j" horiz-adv-x="440" 
d="M154 1178v227h163v-227h-163zM31 -401q-53 0 -101 20v127h93q59 0 95 39t36 102v1137h163v-1137q0 -130 -78.5 -209t-207.5 -79z" />
    <glyph glyph-name="k" unicode="k" horiz-adv-x="1062" 
d="M123 0v1405h164v-825l442 444h229l-428 -424l484 -600h-209l-391 485l-127 -125v-360h-164z" />
    <glyph glyph-name="l" unicode="l" horiz-adv-x="409" 
d="M123 0v1405h164v-1405h-164z" />
    <glyph glyph-name="m" unicode="m" horiz-adv-x="1646" 
d="M123 0v1024h164v-115q43 61 115 98t147 37q82 0 162 -42.5t129 -112.5q49 70 134 112.5t175 42.5q169 0 272 -92.5t103 -244.5v-707h-164v690q0 95 -62 153t-165 58t-165.5 -58t-62.5 -153v-690h-164v690q0 95 -62 153t-165 58t-165 -58t-62 -153v-690h-164z" />
    <glyph glyph-name="n" unicode="n" horiz-adv-x="1155" 
d="M123 0v1024h164v-131q54 68 142 109.5t177 41.5q192 0 309 -112.5t117 -296.5v-635h-164v606q0 132 -80 213.5t-210 81.5t-210.5 -81.5t-80.5 -213.5v-606h-164z" />
    <glyph glyph-name="o" unicode="o" horiz-adv-x="1175" 
d="M588 -20q-232 0 -373 146.5t-141 385.5t141 385.5t373 146.5t373 -146.5t141 -385.5t-141 -385.5t-373 -146.5zM588 123q158 0 254 107t96 282t-96 282t-254 107t-254 -107t-96 -282t96 -282t254 -107z" />
    <glyph glyph-name="p" unicode="p" horiz-adv-x="1241" 
d="M123 -381v1405h164v-174q60 88 163 141t212 53q227 0 366 -146.5t139 -385.5t-139 -385.5t-366 -146.5q-109 0 -212 53t-163 141v-555h-164zM645 123q161 0 260 107t99 282t-99 282t-260 107t-259.5 -107t-98.5 -282t98.5 -282t259.5 -107z" />
    <glyph glyph-name="q" unicode="q" horiz-adv-x="1241" 
d="M954 -381v555q-58 -88 -160.5 -141t-211.5 -53q-229 0 -368.5 146.5t-139.5 385.5t139.5 385.5t368.5 146.5q107 0 209.5 -53t162.5 -141v174h164v-1405h-164zM598 123q160 0 258 107t98 282t-98 282t-258 107q-74 0 -148.5 -31.5t-121.5 -83.5q-40 -44 -65 -120
t-25 -154q0 -175 98.5 -282t261.5 -107z" />
    <glyph glyph-name="r" unicode="r" horiz-adv-x="724" 
d="M123 0v1024h164v-141q122 161 293 161q51 0 84 -20v-123h-70q-138 0 -222.5 -83.5t-84.5 -219.5v-598h-164z" />
    <glyph glyph-name="s" unicode="s" horiz-adv-x="1034" 
d="M520 -20q-198 0 -320.5 101t-125.5 267h153q3 -101 83.5 -163t209.5 -62q126 0 202.5 45t76.5 119q0 65 -58.5 100.5t-230.5 75.5q-212 47 -291.5 108.5t-79.5 178.5q0 132 104.5 213t276.5 81q138 0 248.5 -71.5t151.5 -188.5l-150 -36q-23 69 -92 111t-158 42
q-98 0 -157.5 -38t-59.5 -101q0 -53 52 -85.5t190 -66.5q237 -50 326.5 -117.5t89.5 -197.5q0 -141 -121.5 -228t-319.5 -87z" />
    <glyph glyph-name="t" unicode="t" horiz-adv-x="759" 
d="M530 -20q-137 0 -221 77.5t-84 204.5v619h-164v143h164v381h164v-381h299v-143h-299v-619q0 -63 36 -101t95 -38h178v-123q-85 -20 -168 -20z" />
    <glyph glyph-name="u" unicode="u" horiz-adv-x="1155" 
d="M1032 1024v-1024h-164v131q-54 -68 -142 -109.5t-177 -41.5q-192 0 -309 112.5t-117 296.5v635h164v-606q0 -132 80.5 -213.5t210.5 -81.5t210 81.5t80 213.5v606h164z" />
    <glyph glyph-name="v" unicode="v" horiz-adv-x="1071" 
d="M459 0l-410 1024h176l310 -842l311 842h176l-410 -1024h-153z" />
    <glyph glyph-name="w" unicode="w" horiz-adv-x="1568" 
d="M401 0l-352 1024h172l260 -838l230 838h149l227 -838l261 838h172l-353 -1024h-168l-215 797l-215 -797h-168z" />
    <glyph glyph-name="x" unicode="x" horiz-adv-x="1075" 
d="M49 0l395 539l-358 485h201l252 -354l249 354h199l-354 -485l393 -539h-201l-286 408l-289 -408h-201z" />
    <glyph glyph-name="y" unicode="y" horiz-adv-x="1042" 
d="M264 -381l174 442l-389 963h174l299 -752l295 752h176l-553 -1405h-176z" />
    <glyph glyph-name="z" unicode="z" horiz-adv-x="991" 
d="M61 0v109l646 772h-646v143h869v-109l-645 -772h645v-143h-869z" />
    <glyph glyph-name="braceleft" unicode="{" horiz-adv-x="724" 
d="M676 -195q-164 0 -264.5 91.5t-100.5 240.5v234q0 115 -68.5 185.5t-181.5 70.5v143q113 0 181.5 70.5t68.5 187.5v234q0 149 100 239t265 90v-143q-91 0 -146 -50.5t-55 -135.5v-234q0 -106 -55 -196.5t-146 -133.5q91 -41 146 -131t55 -196v-234q0 -83 55 -135t146 -53
v-144z" />
    <glyph glyph-name="bar" unicode="|" horiz-adv-x="409" 
d="M123 -195v1786h164v-1786h-164z" />
    <glyph glyph-name="braceright" unicode="}" horiz-adv-x="724" 
d="M49 -195v144q91 1 146 53t55 135v234q0 106 55 196t146 131q-91 43 -146 133.5t-55 196.5v234q0 85 -55 135.5t-146 50.5v143q165 0 265 -90t100 -239v-234q0 -117 68.5 -187.5t181.5 -70.5v-143q-113 0 -181.5 -70.5t-68.5 -185.5v-234q0 -149 -100.5 -240.5
t-264.5 -91.5z" />
    <glyph glyph-name="asciitilde" unicode="~" horiz-adv-x="1419" 
d="M123 377q0 154 95.5 248t252.5 94q66 0 126 -22.5t105.5 -55t88.5 -64.5t92.5 -54.5t99.5 -22.5q79 0 127.5 54.5t48.5 143.5h137q0 -154 -91 -248t-242 -94q-70 0 -132 22.5t-106.5 55t-86 64.5t-89.5 54.5t-98 22.5q-86 0 -138.5 -54.5t-52.5 -143.5h-137z" />
    <glyph glyph-name="exclamdown" unicode="&#xa1;" horiz-adv-x="471" 
d="M123 1024h225v-225h-225v225zM164 573h143l31 -954h-205z" />
    <glyph glyph-name="cent" unicode="&#xa2;" horiz-adv-x="1163" 
d="M340 -236l70 244q-151 51 -243.5 190t-92.5 314q0 239 141 385.5t373 146.5q64 0 114 -12l60 215h106l-69 -246q110 -46 189 -151t99 -232h-155q-12 73 -59.5 140t-112.5 102l-211 -735q8 -2 39 -2q133 0 228 80.5t118 212.5h156q-29 -196 -167 -316t-335 -120
q-20 0 -78 4l-64 -220h-106zM451 150l211 745q-30 6 -74 6q-158 0 -254 -107t-96 -282q0 -124 59 -224t154 -138z" />
    <glyph glyph-name="sterling" unicode="&#xa3;" 
d="M199 -33l-107 123q111 97 178.5 197.5t67.5 169.5q0 82 -47 184h-191v102h144q-34 73 -54 148t-20 125q0 183 109 295t288 112q177 0 285.5 -112t108.5 -295h-154q0 118 -66.5 191t-173.5 73q-104 0 -168.5 -73t-64.5 -191q0 -35 25.5 -111t66.5 -162h354v-102h-313
q35 -100 35 -184q0 -54 -27.5 -121.5t-71.5 -124.5q60 4 133.5 -17.5t144.5 -46t120 -24.5q64 0 136 23.5t126 62.5l84 -117q-70 -51 -165.5 -81.5t-180.5 -30.5q-80 0 -206 44t-177 44q-47 0 -107 -28t-112 -73z" />
    <glyph glyph-name="currency" unicode="&#xa4;" horiz-adv-x="1181" 
d="M195 197l-72 73l162 162q-37 50 -59.5 113.5t-22.5 120.5t22.5 120t59.5 113l-162 162l72 74l163 -164q45 33 109 53t125 20t124 -20t107 -53l164 164l72 -74l-162 -162q38 -47 61 -111.5t23 -121.5q0 -58 -23 -122.5t-61 -111.5l162 -162l-72 -73l-164 163
q-44 -33 -107 -53t-124 -20t-125 20t-109 53zM592 430q101 0 163 65t62 171t-62 170.5t-163 64.5t-163 -64.5t-62 -170.5t62 -171t163 -65z" />
    <glyph glyph-name="yen" unicode="&#xa5;" horiz-adv-x="1193" 
d="M1145 1405l-225 -459h192v-102h-244l-139 -283h383v-102h-422v-459h-184v459h-422v102h383l-141 283h-242v102h192l-227 459h203l346 -715l344 715h203z" />
    <glyph glyph-name="brokenbar" unicode="&#xa6;" horiz-adv-x="409" 
d="M123 868v723h164v-723h-164zM123 -195v736h164v-736h-164z" />
    <glyph glyph-name="section" unicode="&#xa7;" horiz-adv-x="1177" 
d="M586 -215q-158 0 -262.5 102t-116.5 269h172q9 -98 63 -158.5t133 -60.5q92 0 148.5 44.5t56.5 116.5q0 32 -19 67t-50 60l-369 250q-99 67 -160 153t-61 158q0 78 57 161t150 140q-41 37 -66.5 92t-25.5 109q0 149 96 240.5t254 91.5q161 0 262 -100t106 -263h-170
q-6 98 -58 158t-132 60q-85 0 -135.5 -44t-50.5 -116q0 -37 19.5 -73.5t51.5 -59.5l254 -152q146 -82 235 -187t89 -196q0 -78 -56 -165t-147 -152q48 -45 77.5 -107t29.5 -119q0 -144 -103 -231.5t-272 -87.5zM756 410q60 34 96.5 90t36.5 116q0 49 -50 109.5t-132 110.5
l-281 172q-62 -32 -99.5 -84.5t-37.5 -106.5q0 -48 28.5 -95.5t75.5 -78.5z" />
    <glyph glyph-name="dieresis" unicode="&#xa8;" 
d="M311 1133v204h205v-204h-205zM713 1133v204h205v-204h-205z" />
    <glyph glyph-name="copyright" unicode="&#xa9;" horiz-adv-x="1830" 
d="M915 -84q-163 0 -310 61.5t-253 166.5t-168.5 250t-62.5 306t62.5 306.5t168.5 250t253 166.5t310 62t310.5 -62t253.5 -166.5t168.5 -250t62.5 -306.5q0 -215 -106 -395t-288.5 -284.5t-400.5 -104.5zM915 59q130 0 247 50.5t201 136t133.5 204.5t49.5 250t-49.5 250
t-133.5 204.5t-201 136t-247 50.5q-173 0 -318 -85.5t-228.5 -233t-83.5 -322.5t83.5 -322.5t228.5 -233t318 -85.5zM915 274q-186 0 -299.5 117t-113.5 309t113.5 309t299.5 117q150 0 259.5 -88.5t140.5 -234.5h-156q-23 81 -90 130.5t-154 49.5q-112 0 -180.5 -77.5
t-68.5 -205.5q0 -127 68 -204.5t181 -77.5q86 0 153.5 50t90.5 132h156q-29 -146 -139 -236t-261 -90z" />
    <glyph glyph-name="ordfeminine" unicode="&#xaa;" horiz-adv-x="1224" 
d="M573 -20q-224 0 -361.5 146.5t-137.5 385.5t137.5 385.5t361.5 146.5q104 0 204.5 -53t160.5 -139v172h164v-1024h-164v172q-60 -86 -160.5 -139t-204.5 -53zM590 123q157 0 252.5 107t95.5 282t-95.5 282t-252.5 107q-158 0 -255 -107t-97 -282t97 -282t255 -107z" />
    <glyph glyph-name="guillemotleft" unicode="&#xab;" horiz-adv-x="968" 
d="M385 147l-262 363l262 362h145l-264 -362l262 -363h-143zM700 147l-262 363l262 362h146l-264 -362l262 -363h-144z" />
    <glyph glyph-name="logicalnot" unicode="&#xac;" 
d="M944 211v549h-823v143h987v-692h-164z" />
    <glyph glyph-name="uni00AD" unicode="&#xad;" horiz-adv-x="954" 
d="M123 420v143h708v-143h-708z" />
    <glyph glyph-name="registered" unicode="&#xae;" horiz-adv-x="1830" 
d="M915 -84q-163 0 -310 61.5t-253 166.5t-168.5 250t-62.5 306t62.5 306.5t168.5 250t253 166.5t310 62t310.5 -62t253.5 -166.5t168.5 -250t62.5 -306.5q0 -215 -106 -395t-288.5 -284.5t-400.5 -104.5zM915 59q130 0 247 50.5t201 136t133.5 204.5t49.5 250t-49.5 250
t-133.5 204.5t-201 136t-247 50.5q-173 0 -318 -85.5t-228.5 -233t-83.5 -322.5t83.5 -322.5t228.5 -233t318 -85.5zM608 279v845h361q115 0 185.5 -64.5t70.5 -168.5q0 -76 -44 -137t-116 -84l231 -391h-172l-225 376h-127v-376h-164zM772 799h197q42 0 68 25t26 65
q0 41 -25.5 66.5t-68.5 25.5h-197v-182z" />
    <glyph glyph-name="macron" unicode="&#xaf;" 
d="M260 1133v143h709v-143h-709z" />
    <glyph glyph-name="degree" unicode="&#xb0;" horiz-adv-x="925" 
d="M463 766q-148 0 -244 100t-96 230q0 131 96.5 230t243.5 99q148 0 244 -99.5t96 -229.5q0 -131 -96.5 -230.5t-243.5 -99.5zM463 909q69 0 122.5 52.5t53.5 134.5q0 83 -54 134.5t-122 51.5q-69 0 -122.5 -52t-53.5 -134q0 -83 54 -135t122 -52z" />
    <glyph glyph-name="plusminus" unicode="&#xb1;" 
d="M530 303v289h-409v143h409v289h164v-289h414v-143h-414v-289h-164zM121 0v143h987v-143h-987z" />
    <glyph glyph-name="uni00B2" unicode="&#xb2;" 
d="M121 0v164q361 234 641 475q77 68 124.5 160.5t47.5 175.5q0 138 -87.5 222.5t-232.5 84.5q-154 0 -247 -108t-93 -287h-153q0 243 135 390.5t358 147.5q218 0 351 -123.5t133 -326.5q0 -110 -64.5 -234t-169.5 -217q-96 -83 -238 -188t-276 -193h758v-143h-987z" />
    <glyph glyph-name="uni00B3" unicode="&#xb3;" 
d="M614 -20q-223 0 -358 119.5t-135 316.5h153q0 -132 93 -212.5t247 -80.5q159 0 256 79.5t97 209.5q0 121 -92.5 195.5t-243.5 74.5h-123v143h123q132 0 213.5 62t81.5 162q0 104 -86 168.5t-226 64.5q-144 0 -231.5 -90t-87.5 -238h-154q0 212 129.5 341.5t343.5 129.5
q213 0 343 -98t130 -258q0 -101 -57.5 -187t-152.5 -126q114 -41 182.5 -140t68.5 -219q0 -188 -141 -302.5t-373 -114.5z" />
    <glyph glyph-name="acute" unicode="&#xb4;" 
d="M545 1133l125 272h204l-172 -272h-157z" />
    <glyph glyph-name="paragraph" unicode="&#xb6;" 
d="M479 -193v893q-170 0 -274.5 100.5t-104.5 264.5q0 167 104.5 269t274.5 102h629v-136h-137v-1493h-135v1493h-222v-1493h-135z" />
    <glyph glyph-name="periodcentered" unicode="&#xb7;" horiz-adv-x="471" 
d="M123 399v226h225v-226h-225z" />
    <glyph glyph-name="cedilla" unicode="&#xb8;" 
d="M582 -401q-89 0 -144 48.5t-55 127.5q0 63 53.5 133t141.5 121h141q-75 -53 -120.5 -108t-45.5 -95t28 -64t72 -24l78 2v-109q-59 -32 -149 -32z" />
    <glyph glyph-name="uni00B9" unicode="&#xb9;" horiz-adv-x="841" 
d="M473 0v1128q-60 -47 -156 -75.5t-194 -28.5v143q131 0 229 65.5t129 172.5h156v-1405h-164z" />
    <glyph glyph-name="ordmasculine" unicode="&#xba;" horiz-adv-x="1175" 
d="M588 -20q-232 0 -373 146.5t-141 385.5t141 385.5t373 146.5t373 -146.5t141 -385.5t-141 -385.5t-373 -146.5zM588 123q158 0 254 107t96 282t-96 282t-254 107t-254 -107t-96 -282t96 -282t254 -107z" />
    <glyph glyph-name="guillemotright" unicode="&#xbb;" horiz-adv-x="968" 
d="M268 147h-143l262 363l-264 362h145l262 -362zM584 147h-144l262 363l-264 362h146l262 -362z" />
    <glyph glyph-name="onequarter" unicode="&#xbc;" horiz-adv-x="1566" 
d="M242 -20l860 1445h143l-860 -1445h-143zM61 1264q46 4 71 8t51.5 12.5t40.5 23t27 38t23 59.5h125v-858h-133v643q-13 -7 -27.5 -13.5t-26.5 -10.5t-28.5 -7.5t-26 -5.5t-27 -4t-24 -2.5t-24.5 -2t-21 -1.5v121zM1358 360h147v-120h-147v-240h-133v240h-375v106l354 506
h154v-492zM1006 360h219v312z" />
    <glyph glyph-name="onehalf" unicode="&#xbd;" horiz-adv-x="1669" 
d="M258 -20l860 1445h144l-861 -1445h-143zM61 1264q46 4 71 8t51.5 12.5t40.5 23t27 38t23 59.5h125v-858h-133v643q-13 -7 -27.5 -13.5t-26.5 -10.5t-28.5 -7.5t-26 -5.5t-27 -4t-24 -2.5t-24.5 -2t-21 -1.5v121zM1466 311q-20 -18 -42 -35t-55.5 -40t-49 -33.5
t-64.5 -42.5t-59 -39h412v-121h-625v125q288 184 397 281q95 82 95 182q0 71 -50 116.5t-116 45.5q-199 0 -199 -232h-125q0 172 89 262t235 90q128 0 213.5 -83t85.5 -199q0 -150 -142 -277z" />
    <glyph glyph-name="threequarters" unicode="&#xbe;" horiz-adv-x="1771" 
d="M580 1018q65 -32 100 -87.5t35 -121.5q0 -105 -88 -182.5t-242 -77.5q-125 0 -214 76t-110 215h127q17 -84 70 -127t127 -43q79 0 138 40.5t59 108.5q0 67 -54.5 102t-132.5 35h-90v121h90q75 0 119.5 33.5t44.5 77.5q0 47 -44.5 82t-127.5 35q-79 0 -125.5 -47.5
t-52.5 -143.5h-125q6 148 89.5 229.5t213.5 81.5q79 0 146 -24t112 -77t45 -126q0 -113 -110 -180zM432 -20l860 1445h144l-861 -1445h-143zM1563 360h147v-120h-147v-240h-133v240h-375v106l354 506h154v-492zM1210 360h220v312z" />
    <glyph glyph-name="questiondown" unicode="&#xbf;" horiz-adv-x="1161" 
d="M678 1024v-225h-225v225h225zM641 573q0 -61 -19.5 -116.5t-50.5 -97t-69 -80t-76 -72.5t-69 -67.5t-50.5 -72t-19.5 -79.5q0 -110 71.5 -178t188.5 -68q148 0 240.5 92.5t97.5 243.5h153q-5 -215 -139.5 -347t-351.5 -132q-190 0 -307 107t-117 282q0 59 20 113
t52.5 94.5t71.5 78.5t78 73t71.5 69t52.5 74t20 83h152z" />
    <glyph glyph-name="Agrave" unicode="&#xc0;" horiz-adv-x="1441" 
d="M793 1513h-158l-164 273h205zM1196 0l-186 469h-578l-186 -469h-197l578 1405h188l578 -1405h-197zM498 633h446l-223 561z" />
    <glyph glyph-name="Aacute" unicode="&#xc1;" horiz-adv-x="1441" 
d="M981 1786l-172 -273h-158l125 273h205zM1196 0l-186 469h-578l-186 -469h-197l578 1405h188l578 -1405h-197zM498 633h446l-223 561z" />
    <glyph glyph-name="Acircumflex" unicode="&#xc2;" horiz-adv-x="1441" 
d="M709 1618l-80 -105h-174l186 242h160l186 -242h-174l-80 105h-24zM1196 0l-186 469h-578l-186 -469h-197l578 1405h188l578 -1405h-197zM498 633h446l-223 561z" />
    <glyph glyph-name="Atilde" unicode="&#xc3;" horiz-adv-x="1441" 
d="M602 1628q-43 0 -68.5 -30.5t-25.5 -81.5h-100q0 105 56.5 169t149.5 64q46 0 88.5 -19t69.5 -42.5t62 -42.5t69 -19q40 0 64 30.5t24 80.5h99q0 -104 -55 -169t-144 -65q-51 0 -94 19.5t-68.5 43t-59 43t-67.5 19.5zM1196 0l-186 469h-578l-186 -469h-197l578 1405h188
l578 -1405h-197zM498 633h446l-223 561z" />
    <glyph glyph-name="Adieresis" unicode="&#xc4;" horiz-adv-x="1441" 
d="M623 1718v-205h-205v205h205zM1024 1718v-205h-205v205h205zM1196 0l-186 469h-578l-186 -469h-197l578 1405h188l578 -1405h-197zM498 633h446l-223 561z" />
    <glyph glyph-name="Aring" unicode="&#xc5;" horiz-adv-x="1441" 
d="M721 1503q-75 0 -127.5 53t-52.5 127q0 75 52.5 128t127.5 53t127.5 -53t52.5 -128q0 -74 -52.5 -127t-127.5 -53zM721 1751q-28 0 -48 -19.5t-20 -48.5q0 -27 20.5 -47t47.5 -20q29 0 48 20t19 47q0 29 -19 48.5t-48 19.5zM1196 0l-186 469h-578l-186 -469h-197
l578 1405h188l578 -1405h-197zM498 633h446l-223 561z" />
    <glyph glyph-name="AE" unicode="&#xc6;" horiz-adv-x="1781" 
d="M49 0l578 1405h1093v-164h-723v-405h650v-164h-650v-508h723v-164h-907v469h-381l-186 -469h-197zM498 633h315v608h-74z" />
    <glyph glyph-name="Ccedilla" unicode="&#xc7;" horiz-adv-x="1501" 
d="M803 -18q-105 -91 -105 -156q0 -39 28 -63.5t73 -24.5l78 2v-109q-59 -32 -150 -32q-89 0 -144 48.5t-55 127.5q0 51 35.5 107t95.5 104q-268 32 -426.5 225.5t-158.5 490.5q0 326 188.5 524.5t497.5 198.5q160 0 297 -66.5t232 -189t132 -282.5h-180q-47 169 -179.5 272
t-301.5 103q-226 0 -364 -154t-138 -406t138 -405.5t364 -153.5q180 0 314.5 112.5t174.5 295.5h178q-49 -246 -219.5 -400.5t-404.5 -168.5z" />
    <glyph glyph-name="Egrave" unicode="&#xc8;" horiz-adv-x="1112" 
d="M512 1513l-164 273h205l117 -273h-158zM143 0v1405h908v-164h-723v-405h649v-164h-649v-508h723v-164h-908z" />
    <glyph glyph-name="Eacute" unicode="&#xc9;" horiz-adv-x="1112" 
d="M528 1513l125 273h205l-172 -273h-158zM143 0v1405h908v-164h-723v-405h649v-164h-649v-508h723v-164h-908z" />
    <glyph glyph-name="Ecircumflex" unicode="&#xca;" horiz-adv-x="1112" 
d="M332 1513l186 242h160l186 -242h-174l-80 105h-24l-80 -105h-174zM143 0v1405h908v-164h-723v-405h649v-164h-649v-508h723v-164h-908z" />
    <glyph glyph-name="Edieresis" unicode="&#xcb;" horiz-adv-x="1112" 
d="M295 1513v205h205v-205h-205zM696 1513v205h205v-205h-205zM143 0v1405h908v-164h-723v-405h649v-164h-649v-508h723v-164h-908z" />
    <glyph glyph-name="Igrave" unicode="&#xcc;" horiz-adv-x="471" 
d="M150 1513l-164 273h204l117 -273h-157zM143 0v1405h185v-1405h-185z" />
    <glyph glyph-name="Iacute" unicode="&#xcd;" horiz-adv-x="471" 
d="M166 1513l125 273h205l-172 -273h-158zM143 0v1405h185v-1405h-185z" />
    <glyph glyph-name="Icircumflex" unicode="&#xce;" horiz-adv-x="471" 
d="M-31 1513l187 242h159l187 -242h-174l-80 105h-25l-80 -105h-174zM143 0v1405h185v-1405h-185z" />
    <glyph glyph-name="Idieresis" unicode="&#xcf;" horiz-adv-x="471" 
d="M-68 1513v205h205v-205h-205zM334 1513v205h205v-205h-205zM143 0v1405h185v-1405h-185z" />
    <glyph glyph-name="Eth" unicode="&#xd0;" horiz-adv-x="1388" 
d="M645 1405q301 0 485.5 -192.5t184.5 -507.5q0 -316 -184.5 -510.5t-485.5 -194.5h-502v633h-196v143h196v629h502zM645 164q218 0 351.5 149t133.5 392q0 241 -133.5 388.5t-351.5 147.5h-317v-465h327v-143h-327v-469h317z" />
    <glyph glyph-name="Ntilde" unicode="&#xd1;" horiz-adv-x="1462" 
d="M901 1503q-51 0 -94 19.5t-68.5 43t-59 43t-67.5 19.5q-43 0 -68.5 -30.5t-25.5 -81.5h-100q0 105 57 169t150 64q38 0 72 -12.5t59.5 -30.5t49.5 -36.5t51.5 -31t55.5 -12.5q40 0 64 30.5t24 80.5h99q0 -104 -55 -169t-144 -65zM143 0v1405h203l789 -1149v1149h184
v-1405h-205l-786 1147v-1147h-185z" />
    <glyph glyph-name="Ograve" unicode="&#xd2;" horiz-adv-x="1519" 
d="M674 1513l-164 273h205l116 -273h-157zM760 -20q-204 0 -360 90.5t-241 255t-85 379.5q0 324 188.5 522t497.5 198t497.5 -198t188.5 -522q0 -215 -85 -379.5t-241 -255t-360 -90.5zM760 143q226 0 364 155t138 407q0 250 -138 403.5t-364 153.5t-364 -153.5t-138 -403.5
q0 -252 138 -407t364 -155z" />
    <glyph glyph-name="Oacute" unicode="&#xd3;" horiz-adv-x="1519" 
d="M690 1513l125 273h205l-172 -273h-158zM760 -20q-204 0 -360 90.5t-241 255t-85 379.5q0 324 188.5 522t497.5 198t497.5 -198t188.5 -522q0 -215 -85 -379.5t-241 -255t-360 -90.5zM760 143q226 0 364 155t138 407q0 250 -138 403.5t-364 153.5t-364 -153.5t-138 -403.5
q0 -252 138 -407t364 -155z" />
    <glyph glyph-name="Ocircumflex" unicode="&#xd4;" horiz-adv-x="1519" 
d="M494 1513l186 242h160l186 -242h-174l-80 105h-24l-80 -105h-174zM760 -20q-204 0 -360 90.5t-241 255t-85 379.5q0 324 188.5 522t497.5 198t497.5 -198t188.5 -522q0 -215 -85 -379.5t-241 -255t-360 -90.5zM760 143q226 0 364 155t138 407q0 250 -138 403.5
t-364 153.5t-364 -153.5t-138 -403.5q0 -252 138 -407t364 -155z" />
    <glyph glyph-name="Otilde" unicode="&#xd5;" horiz-adv-x="1519" 
d="M930 1503q-51 0 -94 19.5t-68.5 43t-59.5 43t-67 19.5q-43 0 -68.5 -30.5t-25.5 -81.5h-101q0 105 57 169t150 64q46 0 88.5 -19t69.5 -42.5t62 -42.5t69 -19q40 0 64 30.5t24 80.5h98q0 -105 -54.5 -169.5t-143.5 -64.5zM760 -20q-204 0 -360 90.5t-241 255t-85 379.5
q0 324 188.5 522t497.5 198t497.5 -198t188.5 -522q0 -215 -85 -379.5t-241 -255t-360 -90.5zM760 143q226 0 364 155t138 407q0 250 -138 403.5t-364 153.5t-364 -153.5t-138 -403.5q0 -252 138 -407t364 -155z" />
    <glyph glyph-name="Odieresis" unicode="&#xd6;" horiz-adv-x="1519" 
d="M457 1513v205h205v-205h-205zM858 1513v205h205v-205h-205zM760 -20q-204 0 -360 90.5t-241 255t-85 379.5q0 324 188.5 522t497.5 198t497.5 -198t188.5 -522q0 -215 -85 -379.5t-241 -255t-360 -90.5zM760 143q226 0 364 155t138 407q0 250 -138 403.5t-364 153.5
t-364 -153.5t-138 -403.5q0 -252 138 -407t364 -155z" />
    <glyph glyph-name="multiply" unicode="&#xd7;" 
d="M219 0l-117 117l398 395l-398 397l117 117l395 -397l396 397l116 -117l-395 -397l395 -395l-116 -117l-396 397z" />
    <glyph glyph-name="Oslash" unicode="&#xd8;" horiz-adv-x="1519" 
d="M1192 1286q121 -95 187.5 -244.5t66.5 -336.5q0 -215 -85 -379.5t-241 -255t-360 -90.5q-175 0 -311 65l-52 -84h-164l95 158q-121 96 -187.5 247t-66.5 339q0 324 188.5 522t497.5 198q175 0 311 -65l51 84h164zM258 705q0 -135 42.5 -247t119.5 -186l563 940
q-100 50 -223 50q-226 0 -364 -153.5t-138 -403.5zM760 143q226 0 364 155t138 407q0 272 -162 428l-563 -940q100 -50 223 -50z" />
    <glyph glyph-name="Ugrave" unicode="&#xd9;" horiz-adv-x="1396" 
d="M612 1513l-163 273h204l117 -273h-158zM700 -20q-242 0 -399.5 153.5t-157.5 392.5v879h185v-879q0 -170 104.5 -276.5t267.5 -106.5t266 108.5t103 274.5v879h184v-879q0 -237 -156.5 -391.5t-396.5 -154.5z" />
    <glyph glyph-name="Uacute" unicode="&#xda;" horiz-adv-x="1396" 
d="M629 1513l125 273h204l-172 -273h-157zM700 -20q-242 0 -399.5 153.5t-157.5 392.5v879h185v-879q0 -170 104.5 -276.5t267.5 -106.5t266 108.5t103 274.5v879h184v-879q0 -237 -156.5 -391.5t-396.5 -154.5z" />
    <glyph glyph-name="Ucircumflex" unicode="&#xdb;" horiz-adv-x="1396" 
d="M432 1513l186 242h160l187 -242h-174l-80 105h-25l-80 -105h-174zM700 -20q-242 0 -399.5 153.5t-157.5 392.5v879h185v-879q0 -170 104.5 -276.5t267.5 -106.5t266 108.5t103 274.5v879h184v-879q0 -237 -156.5 -391.5t-396.5 -154.5z" />
    <glyph glyph-name="Udieresis" unicode="&#xdc;" horiz-adv-x="1396" 
d="M395 1513v205h205v-205h-205zM797 1513v205h204v-205h-204zM700 -20q-242 0 -399.5 153.5t-157.5 392.5v879h185v-879q0 -170 104.5 -276.5t267.5 -106.5t266 108.5t103 274.5v879h184v-879q0 -237 -156.5 -391.5t-396.5 -154.5z" />
    <glyph glyph-name="Yacute" unicode="&#xdd;" horiz-adv-x="1193" 
d="M528 1513l125 273h205l-172 -273h-158zM506 0v481l-457 924h203l346 -715l344 715h203l-455 -924v-481h-184z" />
    <glyph glyph-name="Thorn" unicode="&#xde;" horiz-adv-x="1216" 
d="M702 1104q198 0 319.5 -109.5t121.5 -287.5q0 -181 -121.5 -292.5t-319.5 -111.5h-395v-303h-184v1405h184v-301h395zM702 467q115 0 185.5 66.5t70.5 173.5q0 104 -70.5 168.5t-185.5 64.5h-395v-473h395z" />
    <glyph glyph-name="germandbls" unicode="&#xdf;" horiz-adv-x="1138" 
d="M797 778q121 -43 194.5 -149.5t73.5 -237.5q0 -184 -119.5 -296.5t-314.5 -112.5q-150 0 -234 38v125h234q113 0 181.5 72.5t68.5 190.5q0 120 -68 193t-180 73h-236v164h142q104 0 167.5 59t63.5 154t-63.5 153t-167.5 58t-168 -58t-64 -153v-1051h-184v1051
q0 169 114 271.5t302 102.5q187 0 301 -98.5t114 -259.5q0 -83 -43 -162.5t-114 -126.5z" />
    <glyph glyph-name="agrave" unicode="&#xe0;" horiz-adv-x="1224" 
d="M545 1133l-164 272h205l116 -272h-157zM573 -20q-224 0 -361.5 146.5t-137.5 385.5t137.5 385.5t361.5 146.5q104 0 204.5 -53t160.5 -139v172h164v-1024h-164v172q-60 -86 -160.5 -139t-204.5 -53zM590 123q157 0 252.5 107t95.5 282t-95.5 282t-252.5 107
q-158 0 -255 -107t-97 -282t97 -282t255 -107z" />
    <glyph glyph-name="aacute" unicode="&#xe1;" horiz-adv-x="1224" 
d="M561 1133l125 272h205l-172 -272h-158zM573 -20q-224 0 -361.5 146.5t-137.5 385.5t137.5 385.5t361.5 146.5q104 0 204.5 -53t160.5 -139v172h164v-1024h-164v172q-60 -86 -160.5 -139t-204.5 -53zM590 123q157 0 252.5 107t95.5 282t-95.5 282t-252.5 107
q-158 0 -255 -107t-97 -282t97 -282t255 -107z" />
    <glyph glyph-name="acircumflex" unicode="&#xe2;" horiz-adv-x="1224" 
d="M365 1133l186 241h160l186 -241h-174l-80 104h-25l-79 -104h-174zM573 -20q-224 0 -361.5 146.5t-137.5 385.5t137.5 385.5t361.5 146.5q104 0 204.5 -53t160.5 -139v172h164v-1024h-164v172q-60 -86 -160.5 -139t-204.5 -53zM590 123q157 0 252.5 107t95.5 282
t-95.5 282t-252.5 107q-158 0 -255 -107t-97 -282t97 -282t255 -107z" />
    <glyph glyph-name="atilde" unicode="&#xe3;" horiz-adv-x="1224" 
d="M801 1122q-51 0 -94 19.5t-68.5 43t-59 43t-67.5 19.5q-43 0 -68.5 -30.5t-25.5 -81.5h-101q0 105 57 169t150 64q46 0 88.5 -19t69.5 -42.5t62 -42.5t69 -19q40 0 64 30.5t24 80.5h98q0 -105 -54.5 -169.5t-143.5 -64.5zM573 -20q-224 0 -361.5 146.5t-137.5 385.5
t137.5 385.5t361.5 146.5q104 0 204.5 -53t160.5 -139v172h164v-1024h-164v172q-60 -86 -160.5 -139t-204.5 -53zM590 123q157 0 252.5 107t95.5 282t-95.5 282t-252.5 107q-158 0 -255 -107t-97 -282t97 -282t255 -107z" />
    <glyph glyph-name="adieresis" unicode="&#xe4;" horiz-adv-x="1224" 
d="M328 1133v204h204v-204h-204zM729 1133v204h205v-204h-205zM573 -20q-224 0 -361.5 146.5t-137.5 385.5t137.5 385.5t361.5 146.5q104 0 204.5 -53t160.5 -139v172h164v-1024h-164v172q-60 -86 -160.5 -139t-204.5 -53zM590 123q157 0 252.5 107t95.5 282t-95.5 282
t-252.5 107q-158 0 -255 -107t-97 -282t97 -282t255 -107z" />
    <glyph glyph-name="aring" unicode="&#xe5;" horiz-adv-x="1224" 
d="M631 1122q-75 0 -127.5 53.5t-52.5 127.5q0 75 52.5 127.5t127.5 52.5t127.5 -52.5t52.5 -127.5q0 -74 -52.5 -127.5t-127.5 -53.5zM631 1235q28 0 47.5 20.5t19.5 47.5q0 29 -19 48t-48 19q-28 0 -48 -19t-20 -48q0 -27 20.5 -47.5t47.5 -20.5zM573 -20
q-224 0 -361.5 146.5t-137.5 385.5t137.5 385.5t361.5 146.5q104 0 204.5 -53t160.5 -139v172h164v-1024h-164v172q-60 -86 -160.5 -139t-204.5 -53zM590 123q157 0 252.5 107t95.5 282t-95.5 282t-252.5 107q-158 0 -255 -107t-97 -282t97 -282t255 -107z" />
    <glyph glyph-name="ae" unicode="&#xe6;" horiz-adv-x="2039" 
d="M1966 496l-16 -17h-846q6 -160 101 -258t247 -98q118 0 207 65t121 160h164q-48 -166 -172 -267t-304 -101q-116 0 -210 49t-156 139v-168h-164v172q-66 -96 -160.5 -144t-204.5 -48q-147 0 -261 69.5t-176 190.5t-62 272t62 272t176 190.5t261 69.5q110 0 204.5 -48
t160.5 -144v172h164v-172q64 92 158.5 142t207.5 50q226 0 362 -153t136 -395zM590 123q159 0 253.5 110t94.5 279q0 172 -95 280.5t-253 108.5q-164 0 -258 -108t-94 -281q0 -176 94.5 -282.5t257.5 -106.5zM1112 623h680q-27 124 -116.5 201t-223.5 77t-223.5 -77
t-116.5 -201z" />
    <glyph glyph-name="ccedilla" unicode="&#xe7;" horiz-adv-x="1163" 
d="M625 -18q-105 -91 -105 -156q0 -39 28 -63.5t73 -24.5l77 2v-109q-59 -32 -149 -32q-89 0 -144 48.5t-55 127.5q0 51 36 108.5t97 104.5q-188 32 -298.5 172.5t-110.5 351.5q0 239 141 385.5t373 146.5q196 0 333 -117t166 -309h-155q-23 128 -117.5 205.5t-226.5 77.5
q-158 0 -254 -107t-96 -282t96 -282t254 -107q133 0 228 80.5t118 212.5h156q-28 -187 -155 -305t-310 -129z" />
    <glyph glyph-name="egrave" unicode="&#xe8;" horiz-adv-x="1175" 
d="M502 1133l-164 272h205l116 -272h-157zM588 -20q-232 0 -373 146.5t-141 385.5t141 385.5t373 146.5t373 -150.5t141 -397.5l-17 -17h-845q6 -160 101.5 -258t246.5 -98q114 0 203.5 62t123.5 163h164q-50 -166 -184.5 -267t-306.5 -101zM248 623h680
q-29 133 -117.5 205.5t-222.5 72.5t-222.5 -72.5t-117.5 -205.5z" />
    <glyph glyph-name="eacute" unicode="&#xe9;" horiz-adv-x="1175" 
d="M518 1133l125 272h205l-172 -272h-158zM588 -20q-232 0 -373 146.5t-141 385.5t141 385.5t373 146.5t373 -150.5t141 -397.5l-17 -17h-845q6 -160 101.5 -258t246.5 -98q114 0 203.5 62t123.5 163h164q-50 -166 -184.5 -267t-306.5 -101zM248 623h680
q-29 133 -117.5 205.5t-222.5 72.5t-222.5 -72.5t-117.5 -205.5z" />
    <glyph glyph-name="ecircumflex" unicode="&#xea;" horiz-adv-x="1175" 
d="M322 1133l186 241h160l186 -241h-174l-80 104h-25l-79 -104h-174zM588 -20q-232 0 -373 146.5t-141 385.5t141 385.5t373 146.5t373 -150.5t141 -397.5l-17 -17h-845q6 -160 101.5 -258t246.5 -98q114 0 203.5 62t123.5 163h164q-50 -166 -184.5 -267t-306.5 -101z
M248 623h680q-29 133 -117.5 205.5t-222.5 72.5t-222.5 -72.5t-117.5 -205.5z" />
    <glyph glyph-name="edieresis" unicode="&#xeb;" horiz-adv-x="1175" 
d="M285 1133v204h204v-204h-204zM686 1133v204h205v-204h-205zM588 -20q-232 0 -373 146.5t-141 385.5t141 385.5t373 146.5t373 -150.5t141 -397.5l-17 -17h-845q6 -160 101.5 -258t246.5 -98q114 0 203.5 62t123.5 163h164q-50 -166 -184.5 -267t-306.5 -101zM248 623h680
q-29 133 -117.5 205.5t-222.5 72.5t-222.5 -72.5t-117.5 -205.5z" />
    <glyph glyph-name="igrave" unicode="&#xec;" horiz-adv-x="409" 
d="M119 1133l-164 272h205l116 -272h-157zM123 0v1024h164v-1024h-164z" />
    <glyph glyph-name="iacute" unicode="&#xed;" horiz-adv-x="409" 
d="M135 1133l125 272h205l-172 -272h-158zM123 0v1024h164v-1024h-164z" />
    <glyph glyph-name="icircumflex" unicode="&#xee;" horiz-adv-x="409" 
d="M-61 1133l186 241h160l186 -241h-174l-80 104h-24l-80 -104h-174zM123 0v1024h164v-1024h-164z" />
    <glyph glyph-name="idieresis" unicode="&#xef;" horiz-adv-x="409" 
d="M-98 1133v204h204v-204h-204zM303 1133v204h205v-204h-205zM123 0v1024h164v-1024h-164z" />
    <glyph glyph-name="eth" unicode="&#xf0;" horiz-adv-x="1175" 
d="M700 1284q97 -93 164.5 -172t124.5 -174t85 -201t28 -225q0 -239 -141 -385.5t-373 -146.5t-373 146.5t-141 385.5t136.5 385.5t360.5 146.5q121 0 215 -51q-20 25 -42 49.5t-38.5 42.5t-38.5 38.5t-33 30.5t-30 27t-22 19l-138 -94l-65 57l141 97l-129 108l113 82
q31 -23 135 -107l127 89l63 -60zM588 123q158 0 254 107t96 282t-96 282t-254 107t-254 -107t-96 -282t96 -282t254 -107z" />
    <glyph glyph-name="ntilde" unicode="&#xf1;" horiz-adv-x="1155" 
d="M748 1122q-50 0 -93.5 19.5t-69 43t-59 43t-67.5 19.5q-43 0 -68.5 -30.5t-25.5 -81.5h-101q0 105 57 169t150 64q46 0 88.5 -19t69.5 -42.5t62 -42.5t69 -19q40 0 64 30.5t24 80.5h98q0 -105 -54.5 -169.5t-143.5 -64.5zM123 0v1024h164v-131q54 68 142 109.5t177 41.5
q192 0 309 -112.5t117 -296.5v-635h-164v606q0 132 -80 213.5t-210 81.5t-210.5 -81.5t-80.5 -213.5v-606h-164z" />
    <glyph glyph-name="ograve" unicode="&#xf2;" horiz-adv-x="1175" 
d="M502 1133l-164 272h205l116 -272h-157zM588 -20q-232 0 -373 146.5t-141 385.5t141 385.5t373 146.5t373 -146.5t141 -385.5t-141 -385.5t-373 -146.5zM588 123q158 0 254 107t96 282t-96 282t-254 107t-254 -107t-96 -282t96 -282t254 -107z" />
    <glyph glyph-name="oacute" unicode="&#xf3;" horiz-adv-x="1175" 
d="M518 1133l125 272h205l-172 -272h-158zM588 -20q-232 0 -373 146.5t-141 385.5t141 385.5t373 146.5t373 -146.5t141 -385.5t-141 -385.5t-373 -146.5zM588 123q158 0 254 107t96 282t-96 282t-254 107t-254 -107t-96 -282t96 -282t254 -107z" />
    <glyph glyph-name="ocircumflex" unicode="&#xf4;" horiz-adv-x="1175" 
d="M322 1133l186 241h160l186 -241h-174l-80 104h-25l-79 -104h-174zM588 -20q-232 0 -373 146.5t-141 385.5t141 385.5t373 146.5t373 -146.5t141 -385.5t-141 -385.5t-373 -146.5zM588 123q158 0 254 107t96 282t-96 282t-254 107t-254 -107t-96 -282t96 -282t254 -107z
" />
    <glyph glyph-name="otilde" unicode="&#xf5;" horiz-adv-x="1175" 
d="M758 1122q-50 0 -93.5 19.5t-69 43t-59.5 43t-67 19.5q-43 0 -68.5 -30.5t-25.5 -81.5h-101q0 105 57 169t150 64q46 0 88.5 -19t69.5 -42.5t62 -42.5t69 -19q40 0 64 30.5t24 80.5h98q0 -105 -54.5 -169.5t-143.5 -64.5zM588 -20q-232 0 -373 146.5t-141 385.5
t141 385.5t373 146.5t373 -146.5t141 -385.5t-141 -385.5t-373 -146.5zM588 123q158 0 254 107t96 282t-96 282t-254 107t-254 -107t-96 -282t96 -282t254 -107z" />
    <glyph glyph-name="odieresis" unicode="&#xf6;" horiz-adv-x="1175" 
d="M285 1133v204h204v-204h-204zM686 1133v204h205v-204h-205zM588 -20q-232 0 -373 146.5t-141 385.5t141 385.5t373 146.5t373 -146.5t141 -385.5t-141 -385.5t-373 -146.5zM588 123q158 0 254 107t96 282t-96 282t-254 107t-254 -107t-96 -282t96 -282t254 -107z" />
    <glyph glyph-name="divide" unicode="&#xf7;" horiz-adv-x="1232" 
d="M504 799v225h225v-225h-225zM123 440v144h987v-144h-987zM504 0v225h225v-225h-225z" />
    <glyph glyph-name="oslash" unicode="&#xf8;" horiz-adv-x="1185" 
d="M1137 1024l-144 -156q115 -140 115 -356q0 -239 -141 -385.5t-373 -146.5q-194 0 -324 102l-75 -82h-146l146 158q-115 140 -115 354q0 239 141 385.5t373 146.5q191 0 324 -102l73 82h146zM244 512q0 -137 61 -236l506 553q-91 72 -217 72q-158 0 -254 -107t-96 -282z
M944 512q0 137 -61 236l-508 -551q90 -74 219 -74q158 0 254 107t96 282z" />
    <glyph glyph-name="ugrave" unicode="&#xf9;" horiz-adv-x="1155" 
d="M492 1180l-164 272h204l117 -272h-157zM1032 1024v-1024h-164v131q-54 -68 -142 -109.5t-177 -41.5q-192 0 -309 112.5t-117 296.5v635h164v-606q0 -132 80.5 -213.5t210.5 -81.5t210 81.5t80 213.5v606h164z" />
    <glyph glyph-name="uacute" unicode="&#xfa;" horiz-adv-x="1155" 
d="M508 1180l125 272h205l-172 -272h-158zM1032 1024v-1024h-164v131q-54 -68 -142 -109.5t-177 -41.5q-192 0 -309 112.5t-117 296.5v635h164v-606q0 -132 80.5 -213.5t210.5 -81.5t210 81.5t80 213.5v606h164z" />
    <glyph glyph-name="ucircumflex" unicode="&#xfb;" horiz-adv-x="1155" 
d="M311 1180l187 241h159l187 -241h-174l-80 104h-25l-80 -104h-174zM1032 1024v-1024h-164v131q-54 -68 -142 -109.5t-177 -41.5q-192 0 -309 112.5t-117 296.5v635h164v-606q0 -132 80.5 -213.5t210.5 -81.5t210 81.5t80 213.5v606h164z" />
    <glyph glyph-name="udieresis" unicode="&#xfc;" horiz-adv-x="1155" 
d="M274 1180v204h205v-204h-205zM676 1180v204h205v-204h-205zM1032 1024v-1024h-164v131q-54 -68 -142 -109.5t-177 -41.5q-192 0 -309 112.5t-117 296.5v635h164v-606q0 -132 80.5 -213.5t210.5 -81.5t210 81.5t80 213.5v606h164z" />
    <glyph glyph-name="yacute" unicode="&#xfd;" horiz-adv-x="1042" 
d="M453 1133l125 272h204l-172 -272h-157zM264 -381l174 442l-389 963h174l299 -752l295 752h176l-553 -1405h-176z" />
    <glyph glyph-name="thorn" unicode="&#xfe;" 
d="M123 -381v1786h164v-555q60 88 163 141t212 53q227 0 366 -146.5t139 -385.5t-139 -385.5t-366 -146.5q-109 0 -212 53t-163 141v-555h-164zM645 123q161 0 260 107t99 282t-99 282t-260 107t-259.5 -107t-98.5 -282t98.5 -282t259.5 -107z" />
    <glyph glyph-name="ydieresis" unicode="&#xff;" horiz-adv-x="1042" 
d="M219 1133v204h205v-204h-205zM621 1133v204h204v-204h-204zM264 -381l174 442l-389 963h174l299 -752l295 752h176l-553 -1405h-176z" />
    <glyph glyph-name="dotlessi" unicode="&#x131;" horiz-adv-x="409" 
d="M123 0v1024h164v-1024h-164z" />
    <glyph glyph-name="Lslash" unicode="&#x141;" horiz-adv-x="1196" 
d="M412 164h723v-164h-908v356l-166 -116v200l166 117v848h185v-717l485 344v-201l-485 -344v-323z" />
    <glyph glyph-name="lslash" unicode="&#x142;" horiz-adv-x="589" 
d="M528 1024v-201l-143 -100v-723h-164v606l-160 -112v200l160 113v598h164v-481z" />
    <glyph glyph-name="Nacute" unicode="&#x143;" horiz-adv-x="1462" 
d="M662 1513l124 273h205l-172 -273h-157zM143 0v1405h203l789 -1149v1149h184v-1405h-205l-786 1147v-1147h-185z" />
    <glyph glyph-name="nacute" unicode="&#x144;" horiz-adv-x="1155" 
d="M508 1133l125 272h205l-172 -272h-158zM123 0v1024h164v-131q54 68 142 109.5t177 41.5q192 0 309 -112.5t117 -296.5v-635h-164v606q0 132 -80 213.5t-210 81.5t-210.5 -81.5t-80.5 -213.5v-606h-164z" />
    <glyph glyph-name="Ncaron" unicode="&#x147;" horiz-adv-x="1462" 
d="M465 1743h174l80 -105h24l80 105h174l-186 -242h-160zM143 0v1405h203l789 -1149v1149h184v-1405h-205l-786 1147v-1147h-185z" />
    <glyph glyph-name="ncaron" unicode="&#x148;" horiz-adv-x="1155" 
d="M311 1362h174l80 -105h25l80 105h174l-187 -242h-159zM123 0v1024h164v-131q54 68 142 109.5t177 41.5q192 0 309 -112.5t117 -296.5v-635h-164v606q0 132 -80 213.5t-210 81.5t-210.5 -81.5t-80.5 -213.5v-606h-164z" />
    <glyph glyph-name="OE" unicode="&#x152;" horiz-adv-x="2230" 
d="M741 -20q-192 0 -345 96.5t-237.5 261.5t-84.5 367t87 367t240 259t340 94q163 0 299.5 -81.5t221.5 -221.5v283h907v-164h-723v-405h649v-164h-649v-508h723v-164h-907v283q-85 -141 -221 -222t-300 -81zM760 143q150 0 265.5 76t176 203t60.5 283q0 155 -60.5 281
t-176 201t-265.5 75t-265.5 -75t-176 -201t-60.5 -281q0 -156 60.5 -283t176 -203t265.5 -76z" />
    <glyph glyph-name="oe" unicode="&#x153;" horiz-adv-x="2039" 
d="M1966 496l-16 -17h-846q6 -160 101 -258t247 -98q118 0 207 65t121 160h164q-49 -166 -177.5 -267t-314.5 -101q-140 0 -252.5 59.5t-179.5 165.5q-67 -106 -178.5 -165.5t-253.5 -59.5q-228 0 -371 148.5t-143 383.5q0 233 146.5 382.5t367.5 149.5q141 0 253 -61
t179 -170q68 108 181.5 169.5t250.5 61.5q233 0 373.5 -153t140.5 -395zM588 123q161 0 255.5 108.5t94.5 280.5q0 173 -96.5 281t-253.5 108q-158 0 -254 -110t-96 -279q0 -173 96.5 -281t253.5 -108zM1112 623h680q-27 124 -116.5 201t-223.5 77t-223.5 -77t-116.5 -201z
" />
    <glyph glyph-name="Scaron" unicode="&#x160;" horiz-adv-x="1341" 
d="M406 1743h174l79 -105h25l80 105h174l-186 -242h-160zM686 -20q-276 0 -444 138t-168 365h174q0 -153 120.5 -246.5t317.5 -93.5q179 0 288 70.5t109 185.5q0 84 -95 141.5t-320 110.5q-269 63 -383.5 151t-114.5 230q0 177 142 285t374 108q198 0 346.5 -111t192.5 -292
l-168 -41q-28 126 -130.5 203.5t-240.5 77.5q-149 0 -240.5 -63.5t-91.5 -166.5q0 -71 81 -119.5t270 -91.5q304 -72 433.5 -169t129.5 -253q0 -189 -160.5 -304t-421.5 -115z" />
    <glyph glyph-name="scaron" unicode="&#x161;" horiz-adv-x="1034" 
d="M252 1362h174l80 -105h24l80 105h174l-186 -242h-160zM520 -20q-198 0 -320.5 101t-125.5 267h153q3 -101 83.5 -163t209.5 -62q126 0 202.5 45t76.5 119q0 65 -58.5 100.5t-230.5 75.5q-212 47 -291.5 108.5t-79.5 178.5q0 132 104.5 213t276.5 81q138 0 248.5 -71.5
t151.5 -188.5l-150 -36q-23 69 -92 111t-158 42q-98 0 -157.5 -38t-59.5 -101q0 -53 52 -85.5t190 -66.5q237 -50 326.5 -117.5t89.5 -197.5q0 -141 -121.5 -228t-319.5 -87z" />
    <glyph glyph-name="Ydieresis" unicode="&#x178;" horiz-adv-x="1193" 
d="M295 1513v205h205v-205h-205zM696 1513v205h205v-205h-205zM506 0v481l-457 924h203l346 -715l344 715h203l-455 -924v-481h-184z" />
    <glyph glyph-name="Zcaron" unicode="&#x17d;" horiz-adv-x="1175" 
d="M322 1743h174l79 -105h25l80 105h174l-186 -242h-160zM61 0v143l809 1098h-809v164h1053v-145l-807 -1096h807v-164h-1053z" />
    <glyph glyph-name="zcaron" unicode="&#x17e;" horiz-adv-x="991" 
d="M229 1362h174l80 -105h25l80 105h174l-187 -242h-159zM61 0v109l646 772h-646v143h869v-109l-645 -772h645v-143h-869z" />
    <glyph glyph-name="florin" unicode="&#x192;" horiz-adv-x="995" 
d="M639 938h238l-19 -143h-237l-129 -910q-19 -129 -107 -207.5t-215 -78.5q-67 0 -109 20l19 129h98q70 0 104.5 31.5t45.5 105.5l129 910h-164l18 143h164l29 201q19 129 107.5 207.5t215.5 78.5q65 0 107 -20l-16 -129h-99q-71 0 -106 -32t-45 -105z" />
    <glyph glyph-name="uni0237" unicode="&#x237;" horiz-adv-x="440" 
d="M31 -401q-53 0 -101 20v127h93q59 0 95 39t36 102v1137h163v-1137q0 -130 -78.5 -209t-207.5 -79z" />
    <glyph glyph-name="circumflex" unicode="&#x2c6;" 
d="M348 1133l187 241h159l187 -241h-174l-80 104h-25l-80 -104h-174z" />
    <glyph glyph-name="caron" unicode="&#x2c7;" 
d="M348 1362h174l80 -105h25l80 105h174l-187 -242h-159z" />
    <glyph glyph-name="breve" unicode="&#x2d8;" 
d="M928 1436h-164q0 -62 -44 -106t-106 -44q-61 0 -105 44t-44 106h-164q0 -129 92 -221.5t221 -92.5t221.5 92.5t92.5 221.5z" />
    <glyph glyph-name="dotaccent" unicode="&#x2d9;" 
d="M512 1200v205h205v-205h-205z" />
    <glyph glyph-name="ring" unicode="&#x2da;" 
d="M614 1122q-75 0 -127.5 53.5t-52.5 127.5q0 75 52.5 127.5t127.5 52.5t128 -52.5t53 -127.5q0 -74 -53 -127.5t-128 -53.5zM614 1235q29 0 48.5 20.5t19.5 47.5q0 29 -19.5 48t-48.5 19q-28 0 -47.5 -19t-19.5 -48q0 -27 20 -47.5t47 -20.5z" />
    <glyph glyph-name="ogonek" unicode="&#x2db;" 
d="M582 -401q-89 0 -144 48.5t-55 127.5q0 63 53.5 133t141.5 121h141q-75 -53 -120.5 -108t-45.5 -95t28 -64t72 -24l78 2v-109q-59 -32 -149 -32z" />
    <glyph glyph-name="tilde" unicode="&#x2dc;" 
d="M784 1122q-41 0 -77 13t-60.5 31t-47.5 36.5t-49 31.5t-54 13q-43 0 -69 -30.5t-26 -81.5h-100q0 105 57 169t150 64q46 0 88.5 -19t69.5 -42.5t62 -42.5t69 -19q40 0 64 30.5t24 80.5h98q0 -104 -55 -169t-144 -65z" />
    <glyph glyph-name="hungarumlaut" unicode="&#x2dd;" 
d="M399 1133l125 272h205l-172 -272h-158zM639 1133l125 272h205l-172 -272h-158z" />
    <glyph glyph-name="gravecomb" unicode="&#x300;" horiz-adv-x="0" 
d="M-700 1133l-164 272h205l116 -272h-157z" />
    <glyph glyph-name="acutecomb" unicode="&#x301;" horiz-adv-x="0" 
d="M-684 1133l125 272h205l-172 -272h-158z" />
    <glyph glyph-name="uni0302" unicode="&#x302;" horiz-adv-x="0" 
d="M-881 1133l187 241h159l187 -241h-174l-80 104h-25l-80 -104h-174z" />
    <glyph glyph-name="tildecomb" unicode="&#x303;" horiz-adv-x="0" 
d="M-444 1122q-50 0 -93.5 19.5t-69 43t-59.5 43t-67 19.5q-43 0 -68.5 -30.5t-25.5 -81.5h-101q0 105 57 169t150 64q46 0 88.5 -19t69.5 -42.5t62 -42.5t69 -19q40 0 64 30.5t24 80.5h98q0 -105 -54.5 -169.5t-143.5 -64.5z" />
    <glyph glyph-name="uni0307" unicode="&#x307;" horiz-adv-x="0" 
d="M-717 1200v205h205v-205h-205z" />
    <glyph glyph-name="uni0308" unicode="&#x308;" horiz-adv-x="0" 
d="M-918 1133v204h205v-204h-205zM-516 1133v204h205v-204h-205z" />
    <glyph glyph-name="uni030A" unicode="&#x30a;" horiz-adv-x="0" 
d="M-614 1122q-75 0 -128 53.5t-53 127.5q0 75 53 127.5t128 52.5t127.5 -52.5t52.5 -127.5q0 -74 -52.5 -127.5t-127.5 -53.5zM-614 1235q28 0 47.5 20.5t19.5 47.5q0 29 -19 48t-48 19q-28 0 -48 -19t-20 -48q0 -27 20.5 -47.5t47.5 -20.5z" />
    <glyph glyph-name="uni0327" unicode="&#x327;" horiz-adv-x="0" 
d="M-647 -401q-89 0 -144 48.5t-55 127.5q0 63 53.5 133t141.5 121h141q-75 -53 -120.5 -108t-45.5 -95q0 -39 28 -63.5t73 -24.5l77 2v-109q-59 -32 -149 -32z" />
    <glyph glyph-name="uni0335" unicode="&#x335;" horiz-adv-x="0" 
d="M-1106 420v143h709v-143h-709z" />
    <glyph glyph-name="uni0338" unicode="&#x338;" horiz-adv-x="0" 
d="M-1141 -39l889 1483h164l-889 -1483h-164z" />
    <glyph glyph-name="uni0394" unicode="&#x394;" horiz-adv-x="1294" 
d="M698 1405l547 -1405h-1196l547 1405h102zM258 143h778l-389 998z" />
    <glyph glyph-name="uni03A9" unicode="&#x3a9;" horiz-adv-x="1232" 
d="M862 418v-275h215v-143h-379v514q123 28 210 131t87 250q0 164 -112.5 276.5t-266.5 112.5t-266 -115t-112 -274q0 -146 87 -249t212 -132v-514h-381v143h217v275q-132 64 -215.5 194t-83.5 283q0 106 43.5 204.5t116 170t173 114.5t209.5 43q149 0 274.5 -73t197 -195
t71.5 -264q0 -153 -83 -282.5t-214 -194.5z" />
    <glyph glyph-name="uni03BC" unicode="&#x3bc;" horiz-adv-x="1155" 
d="M868 1024h164v-1024h-164v131q-56 -68 -135.5 -109.5t-154.5 -41.5q-76 0 -156.5 41.5t-134.5 109.5v-512h-164v1405h164v-606q0 -132 80.5 -213.5t210.5 -81.5t210 81.5t80 213.5v606z" />
    <glyph glyph-name="pi" unicode="&#x3c0;" horiz-adv-x="1148" 
d="M1087 881h-180v-619q0 -63 36 -101t95 -38h49v-141q-12 -2 -38 -2q-137 0 -221.5 77.5t-84.5 204.5v619h-354v-881h-164v881h-164v143h1026v-143z" />
    <glyph glyph-name="endash" unicode="&#x2013;" horiz-adv-x="1232" 
d="M123 420v143h987v-143h-987z" />
    <glyph glyph-name="emdash" unicode="&#x2014;" horiz-adv-x="1751" 
d="M123 420v143h1505v-143h-1505z" />
    <glyph glyph-name="quoteleft" unicode="&#x2018;" horiz-adv-x="471" 
d="M123 954v226q0 101 62 163t163 62v-123q-46 0 -74 -28t-28 -74h102v-226h-225z" />
    <glyph glyph-name="quoteright" unicode="&#x2019;" horiz-adv-x="471" 
d="M123 954v123q46 0 74 28.5t28 74.5h-102v225h225v-225q0 -101 -62 -163.5t-163 -62.5z" />
    <glyph glyph-name="quotesinglbase" unicode="&#x201a;" horiz-adv-x="471" 
d="M123 -225v123q46 0 74 28t28 74h-102v225h225v-225q0 -101 -62 -163t-163 -62z" />
    <glyph glyph-name="quotedblleft" unicode="&#x201c;" horiz-adv-x="761" 
d="M123 954v226q0 101 62 163t163 62v-123q-46 0 -74 -28t-28 -74h102v-226h-225zM414 954v226q0 101 62 163t163 62v-123q-46 0 -74 -28t-28 -74h102v-226h-225z" />
    <glyph glyph-name="quotedblright" unicode="&#x201d;" horiz-adv-x="761" 
d="M123 954v123q46 0 74 28.5t28 74.5h-102v225h225v-225q0 -101 -62 -163.5t-163 -62.5zM414 954v123q46 0 74 28.5t28 74.5h-102v225h225v-225q0 -101 -62 -163.5t-163 -62.5z" />
    <glyph glyph-name="quotedblbase" unicode="&#x201e;" horiz-adv-x="471" 
d="M123 225h225v-225q0 -101 -62 -163t-163 -62v123q46 0 74 28t28 74h-102v225z" />
    <glyph glyph-name="dagger" unicode="&#x2020;" 
d="M532 -195v1262h-411v143h411v381h164v-381h412v-143h-412v-1262h-164z" />
    <glyph glyph-name="daggerdbl" unicode="&#x2021;" 
d="M532 -195v381h-411v144h411v737h-411v143h411v381h164v-381h412v-143h-412v-737h412v-144h-412v-381h-164z" />
    <glyph glyph-name="bullet" unicode="&#x2022;" horiz-adv-x="624" 
d="M313 328q-79 0 -134.5 55t-55.5 135q0 78 55.5 133.5t134.5 55.5q78 0 133.5 -55.5t55.5 -133.5q0 -79 -55.5 -134.5t-133.5 -55.5z" />
    <glyph glyph-name="ellipsis" unicode="&#x2026;" horiz-adv-x="1658" 
d="M123 0v225h225v-225h-225zM717 0v225h225v-225h-225zM1311 225h225v-225h-225v225z" />
    <glyph glyph-name="perthousand" unicode="&#x2030;" horiz-adv-x="2568" 
d="M420 1425q88 0 155.5 -34.5t108 -95t60.5 -138.5t20 -170t-20 -170t-60.5 -139.5t-108 -96t-155.5 -34.5t-155.5 34.5t-108.5 96t-61.5 139.5t-20.5 170t20.5 170t61.5 138.5t108.5 95t155.5 34.5zM422 -20l860 1445h143l-860 -1445h-143zM633 987q0 63 -11 118
t-35 101.5t-66.5 73.5t-100.5 27t-100.5 -27t-66.5 -73.5t-35 -101.5t-11 -118t11 -117.5t35 -101t66.5 -73.5t100.5 -27t100.5 27t66.5 73.5t35 101t11 117.5zM1407 858q88 0 155.5 -34.5t108 -95t60.5 -138.5t20 -170t-20 -170t-60.5 -139.5t-108 -96t-155.5 -34.5
t-155.5 34.5t-108.5 96t-61.5 139.5t-20.5 170t20.5 170t61.5 138.5t108.5 95t155.5 34.5zM2150 858q88 0 155.5 -34.5t108 -95t60.5 -138.5t20 -170t-20 -170t-60.5 -139.5t-108 -96t-155.5 -34.5t-155.5 34.5t-108.5 96t-61.5 139.5t-20.5 170t20.5 170t61.5 138.5
t108.5 95t155.5 34.5zM1620 420q0 63 -11 117.5t-35 101t-66.5 73.5t-100.5 27t-100.5 -27t-66.5 -73.5t-35 -101t-11 -117.5t11 -118t35 -101.5t66.5 -73.5t100.5 -27t100.5 27t66.5 73.5t35 101.5t11 118zM2363 420q0 63 -11 117.5t-35 101t-66.5 73.5t-100.5 27
t-100.5 -27t-66.5 -73.5t-35 -101t-11 -117.5t11 -118t35 -101.5t66.5 -73.5t100.5 -27t100.5 27t66.5 73.5t35 101.5t11 118z" />
    <glyph glyph-name="guilsinglleft" unicode="&#x2039;" horiz-adv-x="653" 
d="M385 147l-262 363l262 362h145l-264 -362l262 -363h-143z" />
    <glyph glyph-name="guilsinglright" unicode="&#x203a;" horiz-adv-x="653" 
d="M268 147h-143l262 363l-264 362h145l262 -362z" />
    <glyph glyph-name="fraction" unicode="&#x2044;" horiz-adv-x="1101" 
d="M49 -20l860 1445h144l-860 -1445h-144z" />
    <glyph glyph-name="Euro" unicode="&#x20ac;" horiz-adv-x="1284" 
d="M696 -20q-187 0 -314 124t-177 355h-144l19 102h110q-6 65 -6 141q0 80 6 142h-129l19 102h125q50 231 177 355t314 124q212 0 353.5 -132t160.5 -347h-153q-13 151 -113 243.5t-248 92.5q-123 0 -208 -87.5t-119 -248.5h417l-18 -100l-416 -2q-6 -59 -6 -137
q0 -79 6 -146h367l-19 -102h-331q37 -162 121.5 -249t205.5 -87q146 0 246 92.5t115 243.5h153q-19 -215 -160.5 -347t-353.5 -132z" />
    <glyph glyph-name="trademark" unicode="&#x2122;" horiz-adv-x="1583" 
d="M123 1282v123h524v-123h-196v-557h-132v557h-196zM1309 1405h151v-680h-131v442l-184 -442h-90l-185 442v-442h-133v680h152l209 -502z" />
    <glyph glyph-name="partialdiff" unicode="&#x2202;" 
d="M614 -20q-232 0 -373 146.5t-141 385.5t137 385.5t361 146.5q124 0 229.5 -87t155.5 -228q-17 249 -118.5 401t-250.5 152q-116 0 -219 -59l-80 118q52 38 134.5 61t164.5 23q232 0 373 -205.5t141 -543.5q0 -207 -63.5 -365t-180.5 -244.5t-270 -86.5zM922 512
q0 178 -89.5 286.5t-236.5 108.5q-149 0 -240.5 -108.5t-91.5 -286.5q0 -179 90.5 -287t239.5 -108q148 0 238 108.5t90 286.5z" />
    <glyph glyph-name="emptyset" unicode="&#x2205;" horiz-adv-x="1212" 
d="M1018 852q121 -149 121 -340q0 -106 -40.5 -204t-115.5 -173t-172.5 -115t-204.5 -40q-189 0 -340 120l-84 -84l-71 72l84 84q-121 149 -121 340q0 107 40 204.5t115 172.5q76 75 173.5 115t203.5 40q192 0 340 -120l86 86l72 -72zM217 512q0 -130 80 -238l547 547
q-108 80 -238 80q-161 0 -275 -114t-114 -275zM606 123q161 0 275 114t114 275q0 130 -80 238l-546 -547q108 -80 237 -80z" />
    <glyph glyph-name="product" unicode="&#x220f;" 
d="M121 -195v1786h987v-1786h-164v1643h-659v-1643h-164z" />
    <glyph glyph-name="summation" unicode="&#x2211;" 
d="M121 -195v115l520 778l-520 779v114h987v-143h-770l481 -723v-53l-481 -723h770v-144h-987z" />
    <glyph glyph-name="minus" unicode="&#x2212;" 
d="M121 440v144h987v-144h-987z" />
    <glyph glyph-name="radical" unicode="&#x221a;" horiz-adv-x="1232" 
d="M594 -195l-297 580l-100 -57l-74 147l246 129l249 -487l324 1474h168l-393 -1786h-123z" />
    <glyph glyph-name="infinity" unicode="&#x221e;" horiz-adv-x="1568" 
d="M465 150q-154 0 -248 100t-94 264q0 163 93.5 263t246.5 100q106 0 194.5 -52.5t126.5 -138.5q38 86 127 138.5t195 52.5q154 0 247 -100.5t93 -264.5q0 -163 -93 -262.5t-247 -99.5q-106 0 -195 51.5t-127 136.5q-38 -85 -126 -136.5t-193 -51.5zM477 289
q86 0 155.5 61.5t98.5 161.5q-29 101 -99.5 163t-156.5 62t-138 -62t-52 -163q0 -100 53 -161.5t139 -61.5zM1094 289q86 0 138 61.5t52 161.5q0 101 -52 163t-138 62q-85 0 -155 -62t-101 -163q31 -100 101 -161.5t155 -61.5z" />
    <glyph glyph-name="integral" unicode="&#x222b;" horiz-adv-x="970" 
d="M666 1425q116 0 186 -68.5t70 -182.5h-154q0 49 -28 78.5t-74 29.5q-45 0 -72 -29.5t-27 -78.5v-1324q0 -114 -71.5 -182.5t-188.5 -68.5t-187.5 68.5t-70.5 182.5h154q0 -49 28.5 -78.5t75.5 -29.5q43 0 69.5 29.5t26.5 78.5v1324q0 114 72 182.5t191 68.5z" />
    <glyph glyph-name="approxequal" unicode="&#x2248;" horiz-adv-x="1419" 
d="M123 608q0 154 95.5 248t252.5 94q66 0 126 -22.5t105.5 -55t88.5 -64.5t92.5 -54.5t99.5 -22.5q79 0 127.5 55t48.5 144h137q0 -154 -91 -248t-242 -94q-70 0 -132 22.5t-106.5 55t-86 64.5t-89.5 54.5t-98 22.5q-86 0 -138.5 -55t-52.5 -144h-137zM123 211
q0 154 95.5 248t252.5 94q66 0 126 -22.5t105.5 -55t88.5 -64.5t92.5 -54.5t99.5 -22.5q79 0 127.5 54.5t48.5 143.5h137q0 -154 -91 -248t-242 -94q-70 0 -132 22.5t-106.5 55t-86 65t-89.5 55t-98 22.5q-86 0 -138.5 -55t-52.5 -144h-137z" />
    <glyph glyph-name="notequal" unicode="&#x2260;" 
d="M297 0l94 211h-270v143h334l141 316h-475v143h538l95 211h180l-94 -211h268v-143h-332l-141 -316h473v-143h-539l-94 -211h-178z" />
    <glyph glyph-name="lessequal" unicode="&#x2264;" 
d="M1106 315l-987 289v131l987 289v-170l-666 -184l666 -187v-168zM1106 0h-987v143h987v-143z" />
    <glyph glyph-name="greaterequal" unicode="&#x2265;" horiz-adv-x="1232" 
d="M123 315v168l665 187l-665 184v170l987 -289v-131zM123 0v143h987v-143h-987z" />
    <glyph glyph-name="lozenge" unicode="&#x25ca;" 
d="M567 -129l-487 829l487 830h99l483 -830l-483 -829h-99zM616 113l342 587l-342 588l-346 -588z" />
    <glyph glyph-name="a.alt" horiz-adv-x="1175" 
d="M573 -20q-224 0 -361.5 146.5t-137.5 385.5t141 385.5t373 146.5t373 -146.5t141 -385.5v-512h-164v172q-60 -86 -160.5 -139t-204.5 -53zM590 123q157 0 252.5 107t95.5 282t-95.5 282t-252.5 107q-158 0 -255 -107t-97 -282t97 -282t255 -107z" />
    <glyph glyph-name="b.alt" horiz-adv-x="1224" 
d="M637 -20q-232 0 -373 146.5t-141 385.5v893h164v-553q60 86 160 139t204 53q224 0 362 -146.5t138 -385.5t-141 -385.5t-373 -146.5zM635 123q158 0 255 107t97 282t-97 282t-255 107q-157 0 -252.5 -107t-95.5 -282t95.5 -282t252.5 -107z" />
    <glyph glyph-name="d.alt" horiz-adv-x="1224" 
d="M588 -20q-232 0 -373 146.5t-141 385.5t137.5 385.5t361.5 146.5q104 0 204.5 -53t160.5 -139v553h164v-893q0 -239 -141 -385.5t-373 -146.5zM590 123q157 0 252.5 107t95.5 282t-95.5 282t-252.5 107q-158 0 -255 -107t-97 -282t97 -282t255 -107z" />
    <glyph glyph-name="g.alt" horiz-adv-x="1187" 
d="M569 -401q-179 0 -311 104.5t-170 276.5h168q31 -107 117 -172.5t196 -65.5q149 0 240.5 101.5t91.5 267.5v71q-55 -82 -150.5 -132t-195.5 -50q-217 0 -349 143.5t-132 378.5t136 378.5t359 143.5t359.5 -143.5t136.5 -378.5v-411q0 -230 -136.5 -371t-359.5 -141z
M571 143q149 0 239.5 104t90.5 275t-90.5 275t-239.5 104q-150 0 -241.5 -104t-91.5 -275t91.5 -275t241.5 -104z" />
    <glyph glyph-name="m.alt" horiz-adv-x="1646" 
d="M123 0v690q0 159 111 256.5t270 97.5q100 0 191.5 -40.5t144.5 -112.5q51 69 135.5 111t173.5 42q169 0 272 -97t103 -257v-690h-164v690q0 95 -62 153t-165 58t-165.5 -58t-62.5 -153v-690h-164v690q0 95 -62 153t-165 58t-165 -58t-62 -153v-690h-164z" />
    <glyph glyph-name="n.alt" horiz-adv-x="1155" 
d="M123 0v606q0 196 125.5 317t329.5 121t329 -120.5t125 -317.5v-606h-164v606q0 132 -80 213.5t-210 81.5t-210.5 -81.5t-80.5 -213.5v-606h-164z" />
    <glyph glyph-name="p.alt" horiz-adv-x="1224" 
d="M123 -381v893q0 239 141 385.5t373 146.5t373 -146.5t141 -385.5t-138 -385.5t-362 -146.5q-104 0 -204 53t-160 139v-553h-164zM635 123q158 0 255 107t97 282t-97 282t-255 107q-157 0 -252.5 -107t-95.5 -282t95.5 -282t252.5 -107z" />
    <glyph glyph-name="q.alt" horiz-adv-x="1224" 
d="M938 -381v553q-60 -86 -160.5 -139t-204.5 -53q-224 0 -361.5 146.5t-137.5 385.5t141 385.5t373 146.5t373 -146.5t141 -385.5v-893h-164zM590 123q157 0 252.5 107t95.5 282t-95.5 282t-252.5 107q-158 0 -255 -107t-97 -282t97 -282t255 -107z" />
    <glyph glyph-name="u.alt" horiz-adv-x="1155" 
d="M578 -20q-204 0 -329.5 121t-125.5 317v606h164v-606q0 -132 80.5 -213.5t210.5 -81.5t210 81.5t80 213.5v606h164v-606q0 -197 -125 -317.5t-329 -120.5z" />
    <glyph glyph-name="y.alt" horiz-adv-x="1155" 
d="M578 -401q-173 0 -296.5 104.5t-152.5 276.5h166q22 -107 99.5 -172.5t183.5 -65.5q130 0 210 90t80 236v63q-54 -68 -138.5 -109.5t-168.5 -41.5q-197 0 -317.5 121t-120.5 317v606h164v-606q0 -132 80.5 -213.5t210.5 -81.5t210 81.5t80 213.5v606h164v-956
q0 -211 -125 -340t-329 -129z" />
    <glyph glyph-name="zero.numr" horiz-adv-x="837" 
d="M420 1425q88 0 155.5 -34.5t108 -95t60.5 -138.5t20 -170t-20 -170t-60.5 -139.5t-108 -96t-155.5 -34.5t-155.5 34.5t-108.5 96t-61.5 139.5t-20.5 170t20.5 170t61.5 138.5t108.5 95t155.5 34.5zM633 987q0 63 -11 118t-35 101.5t-66.5 73.5t-100.5 27t-100.5 -27
t-66.5 -73.5t-35 -101.5t-11 -118t11 -117.5t35 -101t66.5 -73.5t100.5 -27t100.5 27t66.5 73.5t35 101t11 117.5z" />
    <glyph glyph-name="one.numr" horiz-adv-x="522" 
d="M61 1264q46 4 71 8t51.5 12.5t40.5 23t27 38t23 59.5h125v-858h-133v643q-13 -7 -27.5 -13.5t-26.5 -10.5t-28.5 -7.5t-26 -5.5t-27 -4t-24 -2.5t-24.5 -2t-21 -1.5v121z" />
    <glyph glyph-name="two.numr" horiz-adv-x="772" 
d="M557 866q-20 -18 -42 -35t-55.5 -40t-49 -33.5t-64.5 -42.5t-59 -39h411v-121h-624v125q288 184 397 281q94 81 94 182q0 71 -50 116.5t-116 45.5q-198 0 -198 -232h-125q0 172 88.5 262t234.5 90q128 0 213.5 -83t85.5 -199q0 -151 -141 -277z" />
    <glyph glyph-name="three.numr" horiz-adv-x="800" 
d="M592 1018q65 -32 100 -87.5t35 -121.5q0 -105 -88 -182.5t-242 -77.5q-125 0 -213.5 76t-109.5 215h127q17 -84 69.5 -127t126.5 -43q79 0 138 40.5t59 108.5q0 67 -54 102t-132 35h-91v121h91q75 0 119 33.5t44 77.5q0 47 -44.5 82t-127.5 35q-79 0 -125.5 -47.5
t-52.5 -143.5h-125q6 148 89.5 229.5t213.5 81.5q79 0 146 -24t112 -77t45 -126q0 -113 -110 -180z" />
    <glyph glyph-name="four.numr" horiz-adv-x="778" 
d="M569 913h148v-120h-148v-240h-133v240h-375v106l355 506h153v-492zM217 913h219v312z" />
    </font>
</defs>
</svg>
